<svg width="26" height="16" viewBox="0 0 26 16" fill="none" xmlns="http://www.w3.org/2000/svg">
<path d="M16.5167 14.2899H9.48584V1.70905H16.5167V14.2899Z" fill="#FF5F00"/>
<path d="M9.93092 8C9.92985 6.78846 10.2056 5.59256 10.7373 4.50282C11.2691 3.41309 12.0428 2.45809 13 1.71013C11.8147 0.782585 10.3912 0.205789 8.89223 0.0456571C7.39327 -0.114474 5.8793 0.148518 4.52334 0.80458C3.16738 1.46064 2.02414 2.48331 1.22426 3.7557C0.424376 5.02809 0.000129643 6.49889 0 8C0.000289299 9.50092 0.424586 10.9715 1.22441 12.2437C2.02424 13.5159 3.16734 14.5384 4.5231 15.1945C5.87887 15.8505 7.39262 16.1135 8.89141 15.9536C10.3902 15.7936 11.8136 15.2171 12.9989 14.2899C12.0421 13.5417 11.2686 12.5866 10.7371 11.4969C10.2056 10.4072 9.92989 9.21142 9.93092 8Z" fill="#EB001B"/>
<path d="M26 8C25.9999 9.50111 25.5756 10.9719 24.7757 12.2443C23.9759 13.5167 22.8326 14.5394 21.4767 15.1954C20.1207 15.8515 18.6067 16.1145 17.1078 15.9543C15.6088 15.7942 14.1853 15.2174 13 14.2899C14.8688 12.825 16.0691 10.5522 16.0691 8C16.0691 5.44781 14.8688 3.175 13 1.71013C14.1853 0.782585 15.6088 0.205789 17.1078 0.0456571C18.6067 -0.114474 20.1207 0.148518 21.4767 0.80458C22.8326 1.46064 23.9759 2.48331 24.7757 3.7557C25.5756 5.02809 25.9999 6.49889 26 8Z" fill="#F79E1B"/>
</svg>
