<svg width="49" height="16" viewBox="0 0 49 16" fill="none" xmlns="http://www.w3.org/2000/svg">
<path d="M21.242 15.7333H17.2437L19.7425 0.276197H23.7413L21.242 15.7333ZM13.88 0.276197L10.0683 10.9077L9.6172 8.61834L9.61761 8.61917L8.27224 1.66793C8.27224 1.66793 8.10957 0.276197 6.37559 0.276197H0.0739438L0 0.537922C0 0.537922 1.92705 0.941467 4.18234 2.30467L7.65605 15.7337H11.8219L18.1832 0.276197H13.88ZM45.3287 15.7333H49L45.7991 0.275784H42.585C41.1008 0.275784 40.7393 1.42771 40.7393 1.42771L34.7761 15.7333H38.9441L39.7776 13.4373H44.8604L45.3287 15.7333ZM40.9291 10.2656L43.0299 4.48117L44.2117 10.2656H40.9291ZM35.0887 3.99328L35.6593 0.673953C35.6593 0.673953 33.8987 0 32.0632 0C30.0791 0 25.3672 0.872832 25.3672 5.11709C25.3672 9.11037 30.8974 9.15999 30.8974 11.2575C30.8974 13.355 25.937 12.9792 24.2999 11.6565L23.7055 15.1272C23.7055 15.1272 25.4908 16 28.2185 16C30.9471 16 35.0633 14.5781 35.0633 10.708C35.0633 6.6891 29.4834 6.31491 29.4834 4.56759C29.4838 2.81986 33.3778 3.04437 35.0887 3.99328Z" fill="#2566AF"/>
<path d="M9.61761 8.61879L8.27224 1.66755C8.27224 1.66755 8.10957 0.275818 6.37559 0.275818H0.0739438L0 0.537543C0 0.537543 3.02881 1.16932 5.93398 3.53643C8.7118 5.79893 9.61761 8.61879 9.61761 8.61879Z" fill="#E6A540"/>
</svg>
