<svg width="94" height="93" viewBox="0 0 94 93" fill="none" xmlns="http://www.w3.org/2000/svg">
<path d="M43.2448 65.755C43.8041 66.3124 44.248 66.9747 44.5508 67.7041C44.8536 68.4334 45.0095 69.2153 45.0095 70.005C45.0095 70.7946 44.8536 71.5766 44.5508 72.3059C44.248 73.0352 43.8041 73.6975 43.2448 74.255L27.2448 90.255C26.6874 90.8143 26.025 91.2581 25.2957 91.561C24.5664 91.8638 23.7845 92.0197 22.9948 92.0197C22.2051 92.0197 21.4232 91.8638 20.6939 91.561C19.9646 91.2581 19.3022 90.8143 18.7448 90.255L2.74478 74.255C2.18667 73.6968 1.74394 73.0343 1.44189 72.3051C1.13984 71.5758 0.984375 70.7943 0.984375 70.005C0.984375 69.2157 1.13984 68.4341 1.44189 67.7049C1.74394 66.9757 2.18666 66.3131 2.74478 65.755C3.3029 65.1968 3.96548 64.7541 4.6947 64.4521C5.42391 64.15 6.20549 63.9946 6.99478 63.9946C7.78408 63.9946 8.56565 64.15 9.29487 64.4521C10.0241 64.7541 10.6867 65.1968 11.2448 65.755L16.9998 71.5V5.99997C16.9998 4.40867 17.6319 2.88254 18.7571 1.75732C19.8824 0.632106 21.4085 -3.43323e-05 22.9998 -3.43323e-05C24.5911 -3.43323e-05 26.1172 0.632106 27.2424 1.75732C28.3676 2.88254 28.9998 4.40867 28.9998 5.99997V71.5L34.7548 65.74C35.313 65.1831 35.9755 64.7417 36.7044 64.441C37.4334 64.1404 38.2144 63.9864 39.0029 63.9877C39.7914 63.9891 40.5719 64.1459 41.2997 64.4492C42.0276 64.7524 42.6885 65.1961 43.2448 65.755ZM91.2448 17.755L75.2448 1.75496C74.6874 1.19561 74.025 0.751784 73.2957 0.448952C72.5664 0.146119 71.7845 -0.00976562 70.9948 -0.00976562C70.2051 -0.00976562 69.4232 0.146119 68.6939 0.448952C67.9646 0.751784 67.3022 1.19561 66.7448 1.75496L50.7448 17.755C49.6176 18.8821 48.9844 20.4109 48.9844 22.005C48.9844 23.599 49.6176 25.1278 50.7448 26.255C51.872 27.3821 53.4007 28.0154 54.9948 28.0154C56.5888 28.0154 58.1176 27.3821 59.2448 26.255L64.9998 20.5V86C64.9998 87.5913 65.6319 89.1174 66.7571 90.2426C67.8824 91.3678 69.4085 92 70.9998 92C72.5911 92 74.1172 91.3678 75.2424 90.2426C76.3676 89.1174 76.9998 87.5913 76.9998 86V20.5L82.7548 26.26C83.8819 27.3871 85.4107 28.0204 87.0048 28.0204C88.5988 28.0204 90.1276 27.3871 91.2548 26.26C92.3819 25.1328 93.0152 23.604 93.0152 22.01C93.0152 20.4159 92.3819 18.8871 91.2548 17.76L91.2448 17.755Z" fill="#9A99E6"/>
</svg>
