<svg width="416" height="442" viewBox="0 0 416 442" fill="none" xmlns="http://www.w3.org/2000/svg">
<path d="M384.3 190.824H249.577L297.126 238.471L170.328 365.529L233.727 429.059L360.525 302L384.3 325.824V190.824Z" fill="#DE5C2A"/>
<path d="M233.728 437C232.143 437 228.973 437 227.388 435.412L163.989 371.882C160.819 368.706 160.819 363.941 163.989 360.765L271.767 252.765C274.937 249.588 279.692 249.588 282.862 252.765C286.032 255.941 286.032 260.706 282.862 263.882L181.424 365.529L233.728 417.941L354.186 297.235C357.356 294.059 362.111 294.059 365.281 297.235L400.15 330.588V198.765H268.597L301.882 232.118C305.052 235.294 305.052 241.647 303.467 244.824C301.882 248 293.957 246.412 290.787 244.824L243.238 197.176C241.653 194 241.653 190.824 241.653 187.647C243.238 184.471 246.407 182.882 249.577 182.882H408.075C412.83 182.882 416 186.059 416 190.824V349.647C416 352.824 414.415 356 411.245 357.588C408.075 359.176 404.905 357.588 403.32 356L362.111 314.706L241.653 435.412C238.483 437 235.313 437 233.728 437Z" fill="black"/>
<path d="M31.7002 251.177H166.423L118.874 203.529L245.672 76.4706L182.273 12.9412L55.4749 140L31.7002 116.177V251.177Z" fill="#367A53"/>
<path d="M182.272 5.00002C183.857 5.00002 187.027 5.00002 188.612 6.58826L252.011 70.1177C255.181 73.2941 255.181 78.0589 252.011 81.2353L144.233 189.235C141.063 192.412 136.308 192.412 133.138 189.235C129.968 186.059 129.968 181.294 133.138 178.118L234.576 76.4706L182.272 24.0588L61.8142 144.765C58.6442 147.941 53.8893 147.941 50.7194 144.765L15.8499 111.412V243.235H147.403L114.118 209.882C110.948 206.706 110.948 200.353 112.533 197.176C114.118 194 122.043 195.588 125.213 197.176L172.762 244.824C174.347 248 174.347 251.176 174.347 254.353C172.762 257.529 169.593 259.118 166.423 259.118H7.92505C3.17012 259.118 0.000183105 255.941 0.000183105 251.176V92.353C0.000183105 89.1765 1.58514 86 4.7551 84.4118C7.92505 82.8235 11.095 84.4118 12.68 86L53.8893 127.294L174.347 6.58826C177.517 5.00002 180.687 5.00002 182.272 5.00002Z" fill="black"/>
<rect x="182" width="144" height="144" rx="72" fill="black"/>
<path d="M264.383 102C253.307 102 243.639 95.952 238.442 87H264.5V77H234.834C234.559 75.37 234.383 73.7068 234.383 72C234.383 70.2931 234.559 68.6299 234.834 67H264.5V57H238.442C243.639 48.0479 253.307 42 264.383 42C268.055 42 271.692 42.6884 275.193 44.0459L277 34.7197C272.342 32.9155 269.295 32 264.383 32C247.633 32 233.277 42.3601 227.328 57H217V67H224.73C224.524 68.6418 224.383 70.3032 224.383 72C224.383 73.6968 224.524 75.3582 224.73 77H217V87H227.328C233.277 101.64 247.633 112 264.383 112C269.295 112 272.342 111.084 277 109.28L275.193 99.9541C271.692 101.312 268.055 102 264.383 102Z" fill="white"/>
<rect x="90" y="298" width="144" height="144" rx="72" fill="black"/>
<path d="M186.498 354.615C187.075 360.449 184.976 364.583 180.203 367.019C183.951 367.917 186.754 369.567 188.612 371.971C190.47 374.375 191.191 377.804 190.775 382.26C190.55 384.535 190.03 386.538 189.213 388.269C188.396 390 187.363 391.426 186.114 392.548C184.864 393.67 183.311 394.607 181.452 395.361C179.594 396.114 177.648 396.667 175.614 397.019C173.58 397.372 171.249 397.612 168.622 397.74V410H161.222V397.933C158.659 397.933 156.705 397.917 155.36 397.885V410H147.96V397.74C147.383 397.74 146.518 397.732 145.365 397.716C144.212 397.7 143.331 397.692 142.722 397.692H133.111L134.601 388.894H139.935C141.537 388.894 142.466 388.077 142.722 386.442V367.115H143.491C143.299 367.083 143.042 367.067 142.722 367.067V353.269C142.305 351.09 140.88 350 138.445 350H133.111V342.115L143.299 342.163C145.349 342.163 146.902 342.147 147.96 342.115V330H155.36V341.875C157.987 341.811 159.941 341.779 161.222 341.779V330H168.622V342.115C171.153 342.34 173.396 342.7 175.35 343.197C177.304 343.694 179.114 344.415 180.78 345.361C182.446 346.306 183.767 347.556 184.744 349.111C185.721 350.665 186.306 352.5 186.498 354.615ZM176.167 380.817C176.167 379.663 175.926 378.638 175.446 377.74C174.965 376.843 174.373 376.106 173.668 375.529C172.963 374.952 172.042 374.463 170.905 374.062C169.768 373.662 168.718 373.365 167.757 373.173C166.796 372.981 165.611 372.837 164.202 372.74C162.792 372.644 161.687 372.596 160.886 372.596C160.085 372.596 159.052 372.612 157.786 372.644C156.521 372.676 155.76 372.692 155.504 372.692V388.942C155.76 388.942 156.353 388.95 157.282 388.966C158.211 388.982 158.98 388.99 159.588 388.99C160.197 388.99 161.046 388.966 162.135 388.918C163.224 388.87 164.161 388.806 164.946 388.726C165.731 388.646 166.644 388.51 167.685 388.317C168.726 388.125 169.615 387.901 170.352 387.644C171.089 387.388 171.85 387.051 172.635 386.635C173.42 386.218 174.052 385.737 174.533 385.192C175.013 384.647 175.406 384.006 175.71 383.269C176.014 382.532 176.167 381.715 176.167 380.817ZM172.755 357.933C172.755 356.875 172.555 355.938 172.154 355.12C171.754 354.303 171.265 353.63 170.689 353.101C170.112 352.572 169.343 352.123 168.382 351.755C167.421 351.386 166.54 351.122 165.739 350.962C164.938 350.801 163.953 350.673 162.784 350.577C161.615 350.481 160.686 350.441 159.997 350.457C159.308 350.473 158.443 350.489 157.402 350.505C156.361 350.521 155.728 350.529 155.504 350.529V365.288C155.664 365.288 156.217 365.296 157.162 365.312C158.107 365.329 158.852 365.329 159.396 365.312C159.941 365.296 160.742 365.264 161.799 365.216C162.856 365.168 163.737 365.08 164.442 364.952C165.147 364.824 165.971 364.647 166.916 364.423C167.862 364.199 168.638 363.902 169.247 363.534C169.856 363.165 170.448 362.732 171.025 362.236C171.602 361.739 172.034 361.122 172.322 360.385C172.611 359.647 172.755 358.83 172.755 357.933Z" fill="white"/>
</svg>
