<svg width="272" height="272" viewBox="0 0 272 272" fill="none" xmlns="http://www.w3.org/2000/svg">
<path d="M136 250.689L135.506 250.563C85.7286 237.863 58.2182 206.053 46.2057 188.116C41.3452 180.907 38.8532 172.278 38.8532 163.2V30.7063V28.0195L41.4271 28.7905C64.2495 35.6267 85.4481 37.3853 104.635 34.1011C118.134 31.7554 128.269 27.2783 134.991 23.3485L135.993 22.7623L137 23.3427C143.733 27.2274 153.925 31.7567 167.368 34.1016L136 250.689ZM136 250.689L136.495 250.563M136 250.689L136.495 250.563M136.495 250.563C186.271 237.863 213.781 206.054 225.794 188.116C230.649 180.916 233.201 172.287 233.147 163.193V30.7063V28.0117M136.495 250.563L233.147 28.0117M233.147 28.0117L230.568 28.792M233.147 28.0117L230.568 28.792M230.568 28.792C207.801 35.6798 186.553 37.4379 167.369 34.1017L230.568 28.792ZM142.228 7.27754L142.231 7.27929C146.365 10.4082 155.21 15.9319 169.501 18.3867C187.85 21.5447 208.832 18.7458 231.746 10.1059C236.915 8.16914 242.574 9.59346 246.223 13.7028C248.274 16.0278 249.44 19.1616 249.441 22.4697C249.441 22.4705 249.441 22.4712 249.441 22.472L249.281 162.029V162.031C249.281 174.826 245.672 186.973 238.782 197.255C225.35 217.299 194.437 252.94 138.258 266.174C138.256 266.174 138.253 266.175 138.251 266.175L135.894 266.709L133.537 266.175C133.535 266.175 133.533 266.174 133.531 266.174C77.404 252.941 46.4373 217.299 33.0053 197.255C26.1672 187.023 22.5063 174.822 22.5063 162.031V22.472C22.5063 19.1635 23.672 16.0291 25.7228 13.7037C29.3734 9.59279 35.0341 8.16838 40.2041 10.1071L40.2046 10.1073C63.1132 18.6913 84.0945 21.5451 102.446 18.3867L102.446 18.3866C116.674 15.9335 125.576 10.4682 129.674 7.32446L129.778 7.24454L129.823 7.19929C133.509 4.47349 138.569 4.49957 142.228 7.27754Z" fill="#DE5C2A" stroke="white" stroke-width="4"/>
<path d="M159.906 123.622C161.766 123.675 163.625 123.675 165.484 123.728C167.503 116.556 172.869 110.394 173.665 103.009C173.878 100.831 173.719 98.6531 173.559 96.475C173.187 92.1719 172.762 87.7625 171.647 83.6187C171.116 81.5469 170.372 79.5812 169.362 77.6156C165.484 69.9656 157.834 64.5469 149.494 61.7844C137.965 58.0125 124.791 59.1812 114.165 64.9187C108.056 68.2125 102.584 73.2594 100.778 79.7937C99.6624 83.8844 100.034 88.2406 100.512 92.4906C101.787 104.391 103.541 116.344 108.162 127.447C111.456 135.416 116.397 143.012 123.887 147.581C131.378 152.15 141.791 152.894 148.856 147.741C147.741 146.359 146.678 145.031 145.562 143.65C140.303 147.422 132.6 146.731 127.022 143.331C121.497 139.931 117.725 134.406 114.856 128.669C110.659 120.434 107.95 111.562 106.675 102.531C105.984 97.6969 103.434 76.1281 114.75 85.0531C117.034 86.8594 118.522 89.5156 120.806 91.3219C125.534 95.0406 132.334 94.4031 138.391 93.6062C138.391 91.2687 138.444 88.9312 138.444 86.5406C144.553 86.5406 150.609 86.4875 156.719 86.4875C157.781 86.4875 158.844 86.4875 159.8 86.8594C161.181 87.3906 162.137 88.5594 162.881 89.7812C167.291 97.0594 164.953 106.25 162.562 114.378C161.712 117.512 160.809 120.541 159.906 123.622Z" fill="#367A53"/>
<path d="M163.997 159.747L150.875 211.384L146.944 219.194L141.1 171.116H130.794L124.95 219.194L121.019 211.384L107.897 159.747C107.897 159.747 77.6689 156.188 66.7783 194.544C80.5908 209.95 102.797 227.959 135.894 236.938C168.991 227.959 191.25 209.95 205.01 194.544C194.225 156.188 163.997 159.747 163.997 159.747Z" fill="#367A53"/>
<path d="M95.2531 90.578V121.55C86.3813 121.55 79.2094 114.378 79.2625 105.347C79.2625 99.2374 82.7688 93.978 87.8156 91.2686C88.1344 89.8874 88.6125 88.5593 89.0906 87.2311C96.475 67.1499 109.863 47.3874 132.547 45.3686C141.525 44.5718 150.769 46.8561 158.366 51.7968C165.909 56.7374 171.7 64.1749 176.216 72.1436C178.978 77.0843 181.316 82.2374 183.175 87.603C183.387 88.1874 183.6 88.7718 183.759 89.3561L184.237 91.2686C189.337 93.978 192.844 99.2374 192.844 105.4C192.844 111.881 188.966 117.459 183.441 120.009C180.412 127.128 175.366 133.556 168.247 136.212C160.916 138.975 152.787 137.275 144.978 137.594C143.65 140.675 140.622 142.8 137.116 142.8C132.388 142.8 128.562 138.975 128.562 134.247C128.562 129.519 132.388 125.694 137.116 125.694C140.622 125.694 143.597 127.766 144.925 130.741C146.731 130.741 149.547 131.325 150.609 131.378C155.55 131.537 160.597 131.165 165.166 129.094C170.85 126.491 175.259 121.231 176.747 115.175V90.7374C174.675 84.9468 173.028 78.9436 170.159 73.578C163.784 61.5718 150.981 53.3905 137.647 52.753C124.259 52.1155 110.819 59.1811 103.594 70.7093C99.8219 76.7655 97.75 83.778 95.2531 90.578Z" fill="black"/>
</svg>
