<svg width="1310" height="335" viewBox="0 0 1310 335" fill="none" xmlns="http://www.w3.org/2000/svg">
<path d="M605 246.519V213.177H636.27V246.519H628.379V217.702L630.193 219.464H611.078L612.891 217.702V246.519H605Z" fill="white"/>
<path d="M647.82 247.043C647.231 247.043 646.611 246.995 645.957 246.9C645.336 246.805 644.65 246.678 643.898 246.519L644.389 239.994C644.846 240.121 645.32 240.184 645.81 240.184C647.15 240.184 648.195 239.66 648.947 238.612C649.698 237.533 650.237 235.993 650.564 233.992C650.891 231.991 651.103 229.562 651.201 226.704L651.692 213.177H678.06V246.519H670.218V217.702L672.032 219.464H656.887L658.504 217.607L658.21 226.419C658.112 229.689 657.883 232.595 657.524 235.135C657.165 237.676 656.609 239.835 655.858 241.613C655.106 243.391 654.077 244.741 652.77 245.662C651.463 246.583 649.813 247.043 647.82 247.043Z" fill="white"/>
<path d="M685.698 246.519L700.99 213.177H708.832L724.173 246.519H715.841L703.293 217.083H706.43L693.834 246.519H685.698ZM693.344 239.374L695.451 233.516H713.096L715.253 239.374H693.344Z" fill="white"/>
<path d="M737.341 246.519V217.702L739.155 219.464H726.411V213.177H756.162V219.464H743.419L745.183 217.702V246.519H737.341Z" fill="white"/>
<path d="M764.088 246.519V213.177H771.979V234.897L788.35 213.177H795.8V246.519H787.958V224.847L771.587 246.519H764.088Z" fill="white"/>
<path d="M846.307 246.519L835.622 230.467L842.043 226.704L855.325 246.519H846.307ZM824.006 246.519V213.177H831.897V246.519H824.006ZM829.594 233.087V226.657H841.553V233.087H829.594ZM842.778 230.705L835.475 229.848L846.601 213.177H854.982L842.778 230.705Z" fill="white"/>
<path d="M857.396 246.519L872.688 213.177H880.53L895.871 246.519H887.538L874.991 217.083H878.128L865.532 246.519H857.396ZM865.042 239.374L867.149 233.516H884.794L886.95 239.374H865.042Z" fill="white"/>
<path d="M925.564 246.519L914.879 230.467L921.3 226.704L934.582 246.519H925.564ZM903.263 246.519V213.177H911.154V246.519H903.263ZM908.851 233.087V226.657H920.81V233.087H908.851ZM922.035 230.705L914.732 229.848L925.858 213.177H934.239L922.035 230.705Z" fill="white"/>
<path d="M981.907 243.09V219.464H970.144L969.997 224.323C969.899 226.387 969.752 228.34 969.556 230.181C969.392 232.023 969.131 233.706 968.771 235.23C968.412 236.723 967.938 237.993 967.35 239.041C966.794 240.089 966.092 240.835 965.242 241.28L956.763 240.232C957.94 240.263 958.903 239.867 959.655 239.041C960.439 238.215 961.06 237.056 961.517 235.564C961.975 234.04 962.302 232.261 962.498 230.229C962.726 228.197 962.89 225.99 962.988 223.608L963.38 213.177H989.749V243.09H981.907ZM955.636 253.426L955.685 240.232H994.552V253.426H987.2V246.519H962.988V253.426H955.636Z" fill="white"/>
<path d="M1019.26 247.091C1016.55 247.091 1014.03 246.662 1011.71 245.805C1009.42 244.947 1007.43 243.741 1005.73 242.185C1004.06 240.629 1002.76 238.803 1001.81 236.707C1000.89 234.611 1000.44 232.325 1000.44 229.848C1000.44 227.371 1000.89 225.085 1001.81 222.989C1002.76 220.893 1004.08 219.067 1005.78 217.512C1007.48 215.956 1009.47 214.749 1011.76 213.892C1014.05 213.034 1016.53 212.605 1019.21 212.605C1021.92 212.605 1024.4 213.034 1026.66 213.892C1028.95 214.749 1030.92 215.956 1032.59 217.512C1034.29 219.067 1035.61 220.893 1036.56 222.989C1037.51 225.053 1037.98 227.339 1037.98 229.848C1037.98 232.325 1037.51 234.627 1036.56 236.755C1035.61 238.85 1034.29 240.676 1032.59 242.232C1030.92 243.756 1028.95 244.947 1026.66 245.805C1024.4 246.662 1021.94 247.091 1019.26 247.091ZM1019.21 240.518C1020.74 240.518 1022.15 240.263 1023.42 239.755C1024.73 239.247 1025.87 238.517 1026.85 237.564C1027.83 236.612 1028.59 235.484 1029.11 234.183C1029.66 232.881 1029.94 231.436 1029.94 229.848C1029.94 228.26 1029.66 226.816 1029.11 225.514C1028.59 224.212 1027.83 223.084 1026.85 222.132C1025.91 221.179 1024.78 220.449 1023.47 219.941C1022.17 219.433 1020.74 219.179 1019.21 219.179C1017.67 219.179 1016.25 219.433 1014.94 219.941C1013.67 220.449 1012.54 221.179 1011.56 222.132C1010.58 223.084 1009.81 224.212 1009.26 225.514C1008.74 226.816 1008.47 228.26 1008.47 229.848C1008.47 231.404 1008.74 232.849 1009.26 234.183C1009.81 235.484 1010.57 236.612 1011.51 237.564C1012.49 238.517 1013.64 239.247 1014.94 239.755C1016.25 240.263 1017.67 240.518 1019.21 240.518Z" fill="white"/>
<path d="M1047.04 246.519V213.177H1053.61L1068.21 236.707H1064.73L1079.09 213.177H1085.66L1085.71 246.519H1078.26L1078.21 224.275H1079.63L1068.11 242.994H1064.58L1052.82 224.275H1054.49V246.519H1047.04Z" fill="white"/>
<path d="M1093.3 246.519L1108.59 213.177H1116.43L1131.78 246.519H1123.44L1110.9 217.083H1114.03L1101.44 246.519H1093.3ZM1100.95 239.374L1103.05 233.516H1120.7L1122.85 239.374H1100.95Z" fill="white"/>
<path d="M459.685 186.032C453.263 186.032 447.108 185.191 441.221 183.509C435.334 181.751 430.593 179.495 427 176.743L433.308 162.751C436.748 165.198 440.8 167.224 445.464 168.829C450.205 170.359 454.983 171.123 459.8 171.123C463.47 171.123 466.414 170.779 468.631 170.091C470.924 169.326 472.607 168.294 473.677 166.994C474.747 165.695 475.283 164.204 475.283 162.522C475.283 160.381 474.442 158.699 472.759 157.476C471.077 156.176 468.86 155.144 466.108 154.379C463.355 153.538 460.297 152.773 456.933 152.085C453.645 151.321 450.319 150.403 446.955 149.333C443.668 148.262 440.648 146.886 437.895 145.204C435.143 143.522 432.887 141.305 431.129 138.552C429.447 135.8 428.606 132.283 428.606 128.001C428.606 123.414 429.829 119.247 432.276 115.501C434.799 111.678 438.545 108.658 443.515 106.441C448.561 104.147 454.869 103 462.438 103C467.484 103 472.454 103.612 477.347 104.835C482.24 105.982 486.56 107.74 490.306 110.11L484.572 124.217C480.826 122.076 477.079 120.509 473.333 119.515C469.586 118.444 465.917 117.909 462.323 117.909C458.73 117.909 455.786 118.33 453.492 119.171C451.199 120.012 449.555 121.12 448.561 122.497C447.567 123.796 447.07 125.325 447.07 127.084C447.07 129.148 447.911 130.83 449.593 132.13C451.275 133.353 453.492 134.347 456.245 135.112C458.997 135.876 462.017 136.641 465.305 137.406C468.669 138.17 471.995 139.049 475.283 140.043C478.647 141.037 481.705 142.375 484.457 144.057C487.21 145.739 489.427 147.957 491.109 150.709C492.868 153.462 493.747 156.94 493.747 161.145C493.747 165.656 492.485 169.785 489.962 173.531C487.439 177.278 483.655 180.298 478.608 182.592C473.639 184.885 467.331 186.032 459.685 186.032Z" fill="white"/>
<path d="M534.54 166.306L533.508 144.86L571.927 104.376H592.571L557.936 141.649L547.614 152.659L534.54 166.306ZM517.911 184.656V104.376H536.375V184.656H517.911ZM572.845 184.656L544.288 149.677L556.445 136.488L594.52 184.656H572.845Z" fill="white"/>
<path d="M628.292 184.656V151.856L632.536 163.095L597.213 104.376H616.939L644.004 149.448H632.651L659.831 104.376H678.066L642.743 163.095L646.872 151.856V184.656H628.292Z" fill="white"/>
<path d="M713.839 140.502H752.373V155.411H713.839V140.502ZM715.215 184.656H696.636V104.376H757.305V119.285H715.215V184.656Z" fill="white"/>
<path d="M781.351 184.656V104.376H799.93V169.518H840.184V184.656H781.351Z" fill="white"/>
<path d="M873.701 184.656V151.856L877.945 163.095L842.621 104.376H862.347L889.413 149.448H878.059L905.24 104.376H923.475L888.152 163.095L892.28 151.856V184.656H873.701Z" fill="white"/>
<path d="M977.664 186.032C971.471 186.032 965.699 185.038 960.347 183.05C955.071 180.986 950.484 178.081 946.585 174.334C942.685 170.588 939.627 166.192 937.41 161.145C935.269 156.099 934.199 150.556 934.199 144.516C934.199 138.476 935.269 132.933 937.41 127.887C939.627 122.841 942.685 118.444 946.585 114.698C950.56 110.952 955.186 108.084 960.462 106.096C965.737 104.032 971.51 103 977.779 103C984.737 103 991.006 104.223 996.587 106.67C1002.25 109.04 1006.99 112.557 1010.81 117.221L998.881 128.231C996.129 125.096 993.07 122.764 989.706 121.235C986.342 119.629 982.672 118.827 978.697 118.827C974.95 118.827 971.51 119.438 968.375 120.662C965.24 121.885 962.526 123.643 960.232 125.937C957.938 128.231 956.142 130.945 954.842 134.08C953.619 137.214 953.007 140.693 953.007 144.516C953.007 148.339 953.619 151.818 954.842 154.952C956.142 158.087 957.938 160.801 960.232 163.095C962.526 165.389 965.24 167.147 968.375 168.371C971.51 169.594 974.95 170.206 978.697 170.206C982.672 170.206 986.342 169.441 989.706 167.912C993.07 166.306 996.129 163.898 998.881 160.687L1010.81 171.697C1006.99 176.36 1002.25 179.916 996.587 182.362C991.006 184.809 984.698 186.032 977.664 186.032Z" fill="#FD5744"/>
<path d="M1022.82 184.656L1058.6 104.376H1076.95L1112.84 184.656H1093.35L1063.99 113.78H1071.33L1041.85 184.656H1022.82ZM1040.71 167.453L1045.64 153.347H1086.93L1091.97 167.453H1040.71Z" fill="#FD5744"/>
<path d="M1132.64 184.656V104.376H1167.39C1174.58 104.376 1180.77 105.561 1185.97 107.931C1191.17 110.225 1195.18 113.551 1198.01 117.909C1200.84 122.267 1202.26 127.466 1202.26 133.506C1202.26 139.47 1200.84 144.631 1198.01 148.989C1195.18 153.27 1191.17 156.558 1185.97 158.852C1180.77 161.145 1174.58 162.292 1167.39 162.292H1142.96L1151.22 154.15V184.656H1132.64ZM1183.68 184.656L1163.61 155.526H1183.45L1203.75 184.656H1183.68ZM1151.22 156.214L1142.96 147.498H1166.36C1172.09 147.498 1176.38 146.275 1179.2 143.828C1182.03 141.305 1183.45 137.864 1183.45 133.506C1183.45 129.072 1182.03 125.631 1179.2 123.185C1176.38 120.738 1172.09 119.515 1166.36 119.515H1142.96L1151.22 110.684V156.214Z" fill="#FD5744"/>
<path d="M1228.44 184.656V104.376H1264.91C1273.63 104.376 1281.31 106.058 1287.97 109.422C1294.62 112.71 1299.82 117.336 1303.56 123.299C1307.31 129.263 1309.18 136.335 1309.18 144.516C1309.18 152.621 1307.31 159.693 1303.56 165.733C1299.82 171.697 1294.62 176.36 1287.97 179.724C1281.31 183.012 1273.63 184.656 1264.91 184.656H1228.44ZM1247.02 169.403H1264C1269.35 169.403 1273.97 168.409 1277.87 166.421C1281.85 164.357 1284.91 161.451 1287.05 157.705C1289.27 153.959 1290.37 149.562 1290.37 144.516C1290.37 139.393 1289.27 134.997 1287.05 131.327C1284.91 127.581 1281.85 124.714 1277.87 122.726C1273.97 120.662 1269.35 119.629 1264 119.629H1247.02V169.403Z" fill="#FD5744"/>
<path d="M0 34C0 15.2223 15.2223 0 34 0H300.337C319.115 0 334.337 15.2223 334.337 34V300.337C334.337 319.115 319.115 334.337 300.337 334.337H34C15.2223 334.337 0 319.115 0 300.337V34Z" fill="url(#paint0_linear_1933_3)"/>
<path fill-rule="evenodd" clip-rule="evenodd" d="M26.8279 208.19C26.0376 207.989 25.7166 207.028 26.2959 206.454C28.84 203.935 31.3545 201.449 33.8441 198.987L33.8457 198.986C42.0447 190.88 49.9727 183.042 57.7912 175.149C71.1831 161.794 84.5482 148.412 97.9158 135.027C121.311 111.603 144.714 88.1711 168.28 64.8621C186.392 46.9531 208.246 40.8823 232.833 47.7626C256.596 54.3688 271.711 70.1993 278.272 93.6623C281.877 93.3769 285.505 93.8237 288.936 94.978C292.554 96.195 295.87 98.1703 298.663 100.772C301.456 103.374 303.662 106.542 305.132 110.064C306.602 113.586 307.303 117.382 307.188 121.197L299.45 120.965C299.158 122.163 298.772 123.339 298.294 124.483C296.991 127.607 295.035 130.416 292.558 132.723C290.082 135.031 287.141 136.782 283.933 137.861C280.841 138.901 277.57 139.294 274.323 139.016C270.95 146.02 266.339 152.327 260.557 158.049C241.606 176.865 222.745 195.771 203.884 214.677L203.879 214.682L203.874 214.687C194.442 224.142 185.009 233.597 175.565 243.041C174.366 244.239 173.24 245.438 171.941 246.821L171.94 246.822L171.879 246.887C171.509 247.281 171.518 247.898 171.901 248.28C180.054 256.433 187.927 264.304 195.801 272.08C196.712 272.889 198.128 273.597 199.241 273.698C203.466 273.849 207.748 273.831 212.253 273.813H212.254H212.255H212.255H212.256H212.256L213.413 273.808L213.911 273.806C214.104 273.805 214.298 273.805 214.492 273.804C215.389 273.801 215.833 272.71 215.191 272.084C207.493 264.568 200.106 257.363 192.809 250.249C192.4 249.85 192.408 249.19 192.825 248.8C195.7 246.112 198.095 243.822 200.666 241.364L200.676 241.355C201.507 240.56 202.357 239.748 203.247 238.898C203.657 238.508 204.308 238.535 204.67 238.969C205.069 239.448 205.485 239.966 205.92 240.508L205.92 240.508C207.091 241.968 208.398 243.597 209.865 245.064C218.466 253.766 227.167 262.569 236.071 271.068C237.69 272.585 240.321 273.597 242.547 273.8C246.35 274.081 250.203 274.02 254.173 273.956H254.173C255.581 273.934 257.003 273.911 258.444 273.904C258.996 273.901 259.444 274.349 259.444 274.901V287.167C259.444 287.719 258.996 288.167 258.444 288.167H159.871C159.318 288.167 158.87 287.72 158.87 287.167V275.103C158.87 274.551 159.318 274.103 159.87 274.103H173.212C174.109 274.103 174.555 273.012 173.92 272.379C170.341 268.812 167.076 265.354 163.749 261.829L163.748 261.828L163.747 261.828C159.673 257.512 155.506 253.098 150.556 248.266C150.172 247.891 150.148 247.275 150.524 246.892C151.445 245.952 152.263 245.297 153.033 244.68C153.686 244.156 154.305 243.66 154.924 243.041L155.069 242.897C186.892 211.174 218.615 179.553 250.338 147.729C267.032 131.034 270.776 107.257 260.354 87.3241C244.064 56.5653 203.592 50.4945 178.499 75.2837C165.886 87.7625 153.362 100.331 140.838 112.9C134.576 119.185 128.314 125.469 122.041 131.742C112.328 141.455 102.615 151.143 92.9024 160.83C83.1886 170.519 73.4747 180.207 63.7608 189.921C63.168 190.514 62.5752 191.15 61.7591 192.079C61.1767 192.743 61.6946 193.79 62.5775 193.778C64.0327 193.758 65.4549 193.794 66.849 193.829C73.504 193.998 79.5167 194.15 85.4134 188.1C103.474 169.204 122.047 150.821 140.62 132.438C146.811 126.31 153.002 120.182 159.174 114.036C173.946 99.2634 196.105 98.7575 210.27 112.923C224.132 126.886 223.727 148.943 209.056 163.614C207.551 165.119 206.049 166.634 204.545 168.152L204.544 168.153L204.543 168.154L204.542 168.155C197.757 175 190.929 181.889 183.558 188.1C170.873 198.765 156.316 205.237 140.455 207.514L102.729 245.24L81.3835 245.24L116.646 208.55C113.273 208.576 109.9 208.596 106.527 208.61L59.2745 255.863L36.3672 255.862L83.2981 208.646C74.8254 208.639 66.3499 208.616 57.8698 208.593H57.8693H57.8688H57.8682H57.8677H57.8672L57.8519 208.593C47.8993 208.566 37.9405 208.539 27.9728 208.538C27.7564 208.538 27.55 208.459 27.3541 208.367C27.2148 208.302 27.048 208.246 26.8279 208.19ZM102.343 193.667L100.694 192.018C100.715 191.775 100.823 191.542 101.012 191.367C102.143 190.324 103.285 189.292 104.428 188.26C107.492 185.493 110.564 182.719 113.44 179.702C127.629 165.665 141.704 151.571 155.793 137.463L155.823 137.434C160.512 132.738 165.202 128.041 169.899 123.344C176.172 117.071 183.66 114.946 192.058 117.982C200.051 120.916 204.604 126.886 205.616 135.284C206.425 141.456 204.503 147.021 200.152 151.472L200.152 151.473C192.766 159.061 185.38 166.65 177.589 173.833C168.121 182.543 157.148 188.33 143.757 191.525C142.836 191.745 142.193 190.679 142.814 189.963C143.298 189.405 143.697 188.956 144.096 188.507L144.097 188.506L144.098 188.505C153.745 178.926 163.346 169.301 172.933 159.692L172.941 159.684L172.942 159.683L172.944 159.681L172.945 159.68L172.947 159.678L172.948 159.677C177.735 154.878 182.519 150.084 187.302 145.3C188.415 144.289 189.528 143.176 190.338 141.962C192.462 138.623 192.159 135.385 189.326 132.754C186.493 130.123 183.154 129.921 180.118 132.248C178.295 133.615 176.7 135.268 175.119 136.906L175.119 136.906L175.119 136.906L175.119 136.906L175.119 136.907L175.118 136.907C174.594 137.45 174.071 137.992 173.542 138.521C168.716 143.347 163.882 148.164 159.05 152.98L159.04 152.99L159.04 152.99C146.954 165.035 134.875 177.072 122.951 189.213C119.815 192.451 116.669 193.766 112.024 193.766C110.112 193.766 108.341 193.74 106.599 193.714L106.595 193.714C105.18 193.693 103.783 193.673 102.343 193.667ZM277.855 130.004C278.941 129.892 280.015 129.661 281.056 129.31C283.047 128.641 284.872 127.554 286.409 126.122C287.127 125.453 287.774 124.717 288.343 123.924H279.422C279.407 124.001 279.392 124.077 279.376 124.154C278.949 126.151 278.442 128.101 277.855 130.004ZM291.729 108.216C292.565 108.995 293.317 109.856 293.973 110.784H280.995V103.763C282.59 103.822 284.172 104.109 285.693 104.621C287.938 105.376 289.996 106.602 291.729 108.216ZM243.561 96.4359C243.561 101.9 239.109 106.352 233.645 106.352C228.181 106.352 223.729 101.798 223.729 96.3347C223.729 90.871 228.181 86.4191 233.645 86.5202C239.311 86.6214 243.561 90.871 243.561 96.4359Z" fill="white"/>
<defs>
<linearGradient id="paint0_linear_1933_3" x1="167.169" y1="-2.20016" x2="-220.624" y2="380.99" gradientUnits="userSpaceOnUse">
<stop stop-color="#FF5C39"/>
<stop offset="1" stop-color="#E00ED8"/>
</linearGradient>
</defs>
</svg>
