<svg width="144" height="33" viewBox="0 0 144 33" fill="none" xmlns="http://www.w3.org/2000/svg">
<path fill-rule="evenodd" clip-rule="evenodd" d="M0 0.386724L19.0501 32.3867L38.1003 0.386719H38.0974L25.4775 21.5853L12.8576 0.386724H0Z" fill="#367A53"/>
<path fill-rule="evenodd" clip-rule="evenodd" d="M25.4771 21.587L31.9063 32.3867L50.9564 0.386719H38.0979L25.4771 21.587Z" fill="#DE5C2A"/>
<path fill-rule="evenodd" clip-rule="evenodd" d="M38.0972 0.386719L12.8574 0.386724L25.4773 21.5853L38.0972 0.386719Z" fill="#AF5528"/>
<path d="M143.883 13.055V15.0088H137.24V13.055H143.883ZM139.018 10.3198H141.858V20.9728C141.858 21.3018 141.904 21.5555 141.997 21.7337C142.09 21.9119 142.229 22.0319 142.415 22.0936C142.601 22.1553 142.822 22.1861 143.079 22.1861C143.265 22.1861 143.436 22.1759 143.593 22.1553C143.751 22.1347 143.883 22.1142 143.99 22.0936L144.001 24.1296C143.765 24.205 143.497 24.2667 143.197 24.3147C142.904 24.3627 142.572 24.3867 142.201 24.3867C141.565 24.3867 141.008 24.2838 140.529 24.0782C140.051 23.8657 139.679 23.5263 139.415 23.0602C139.151 22.5872 139.018 21.9634 139.018 21.1887V10.3198Z" fill="white"/>
<path d="M131.798 24.3869C130.919 24.3869 130.13 24.2498 129.43 23.9756C128.73 23.7014 128.134 23.3209 127.641 22.8342C127.155 22.3406 126.78 21.7682 126.516 21.117C126.258 20.4589 126.13 19.7528 126.13 18.9987V18.5874C126.13 17.7305 126.258 16.9524 126.516 16.2532C126.773 15.5471 127.137 14.9404 127.608 14.4332C128.08 13.9259 128.644 13.5351 129.301 13.2609C129.959 12.9867 130.684 12.8496 131.476 12.8496C132.298 12.8496 133.023 12.9833 133.651 13.2506C134.28 13.5111 134.805 13.8813 135.227 14.3612C135.648 14.841 135.966 15.4169 136.18 16.0887C136.394 16.7536 136.502 17.4906 136.502 18.2995V19.4409H127.416V17.5694H133.716V17.3637C133.701 16.9319 133.616 16.5377 133.459 16.1812C133.301 15.8179 133.059 15.53 132.73 15.3175C132.401 15.0981 131.976 14.9884 131.455 14.9884C131.034 14.9884 130.666 15.0775 130.351 15.2558C130.044 15.4272 129.787 15.6739 129.58 15.9961C129.38 16.3115 129.23 16.6885 129.13 17.1272C129.03 17.566 128.98 18.0527 128.98 18.5874V18.9987C128.98 19.4649 129.044 19.8967 129.173 20.2943C129.309 20.6919 129.505 21.0381 129.762 21.3329C130.026 21.6208 130.341 21.847 130.705 22.0116C131.076 22.1692 131.498 22.2481 131.969 22.2481C132.562 22.2481 133.098 22.1384 133.576 21.919C134.062 21.6928 134.484 21.3603 134.841 20.9216L136.266 22.3406C136.023 22.6834 135.694 23.0124 135.28 23.3278C134.873 23.6431 134.38 23.9002 133.801 24.099C133.223 24.2909 132.555 24.3869 131.798 24.3869Z" fill="white"/>
<path d="M123.888 8.38672V24.1811H121.049V8.38672H123.888Z" fill="white"/>
<path d="M118.192 8.38672V24.1811H115.353V8.38672H118.192Z" fill="white"/>
<path d="M109.79 21.8162V16.6851C109.79 16.308 109.722 15.9824 109.586 15.7082C109.451 15.434 109.244 15.2215 108.965 15.0707C108.686 14.9199 108.333 14.8445 107.904 14.8445C107.526 14.8445 107.193 14.9062 106.908 15.0296C106.629 15.153 106.415 15.3278 106.265 15.554C106.115 15.7733 106.04 16.027 106.04 16.3149H103.201C103.201 15.8556 103.315 15.4203 103.543 15.009C103.772 14.5908 104.097 14.2206 104.518 13.8985C104.947 13.5694 105.458 13.3123 106.051 13.1272C106.651 12.9422 107.322 12.8496 108.065 12.8496C108.944 12.8496 109.726 12.9936 110.411 13.2815C111.104 13.5625 111.647 13.9876 112.04 14.5566C112.44 15.1255 112.64 15.8419 112.64 16.7057V21.5591C112.64 22.1144 112.676 22.5908 112.747 22.9884C112.826 23.3792 112.94 23.7185 113.09 24.0064V24.1812H110.208C110.072 23.9002 109.969 23.5437 109.897 23.1118C109.826 22.6731 109.79 22.2412 109.79 21.8162ZM110.186 17.4049L110.208 19.0193H108.418C107.976 19.0193 107.586 19.0638 107.251 19.153C106.915 19.2352 106.64 19.3586 106.426 19.5231C106.211 19.6808 106.051 19.8727 105.943 20.099C105.836 20.3183 105.783 20.5685 105.783 20.8496C105.783 21.1238 105.847 21.3706 105.976 21.59C106.111 21.8093 106.304 21.9841 106.554 22.1144C106.811 22.2378 107.111 22.2995 107.454 22.2995C107.954 22.2995 108.39 22.2035 108.761 22.0116C109.133 21.8128 109.422 21.5728 109.629 21.2918C109.836 21.0107 109.947 20.7434 109.961 20.4897L110.776 21.6619C110.676 21.943 110.526 22.2412 110.326 22.5566C110.126 22.8719 109.869 23.1667 109.554 23.4409C109.24 23.7151 108.861 23.9413 108.418 24.1195C107.976 24.2978 107.461 24.3869 106.876 24.3869C106.126 24.3869 105.454 24.2429 104.861 23.955C104.268 23.6671 103.801 23.2729 103.458 22.7725C103.115 22.2721 102.943 21.7031 102.943 21.0655C102.943 20.476 103.058 19.955 103.286 19.5026C103.515 19.0501 103.854 18.6697 104.304 18.3612C104.754 18.0458 105.311 17.8093 105.976 17.6517C106.647 17.4871 107.415 17.4049 108.279 17.4049H110.186Z" fill="white"/>
<path d="M88.5543 21.3123L91.6615 9.20947H93.3437L93.4508 11.7596L90.1293 24.1812H88.3507L88.5543 21.3123ZM86.5935 9.20947L89.1436 21.2712V24.1812H87.2043L83.6685 9.20947H86.5935ZM96.6759 21.2198L99.1831 9.20947H102.119L98.5831 24.1812H96.6438L96.6759 21.2198ZM94.1473 9.20947L97.2545 21.3534L97.4366 24.1812H95.658L92.3472 11.7493L92.4758 9.20947H94.1473Z" fill="white"/>
<path d="M76.8868 19.1015H73.0081V16.3149H76.8868C77.4154 16.3149 77.8439 16.2292 78.1725 16.0578C78.5011 15.8864 78.7404 15.6499 78.8904 15.3483C79.0475 15.0398 79.1261 14.6936 79.1261 14.3097C79.1261 13.8984 79.0475 13.518 78.8904 13.1683C78.7404 12.8187 78.5011 12.5377 78.1725 12.3252C77.8439 12.1058 77.4154 11.9961 76.8868 11.9961H74.4224V24.1812H70.6616V9.20947H76.8868C78.1368 9.20947 79.2118 9.42884 80.1119 9.86757C81.019 10.3063 81.7155 10.9096 82.2012 11.6773C82.6869 12.4383 82.9298 13.3089 82.9298 14.2892C82.9298 15.2557 82.6869 16.0989 82.2012 16.8187C81.7155 17.5385 81.019 18.1006 80.1119 18.5051C79.2118 18.9027 78.1368 19.1015 76.8868 19.1015Z" fill="white"/>
<path d="M62.0617 20.6542L65.3082 9.20947H69.519L64.2582 24.1812H61.5367L62.0617 20.6542ZM59.1152 9.20947L62.3617 20.6542L62.9081 24.1812H60.1545L54.9258 9.20947H59.1152Z" fill="white"/>
</svg>
