<svg width="128" height="32" viewBox="0 0 128 32" fill="none" xmlns="http://www.w3.org/2000/svg">
<path d="M121.039 23.4007C119.897 23.4007 118.892 23.1772 118.023 22.7304C117.166 22.2836 116.502 21.6754 116.031 20.9058C115.559 20.1239 115.323 19.2364 115.323 18.2434C115.323 17.238 115.553 16.3506 116.012 15.581C116.484 14.7991 117.123 14.1909 117.93 13.7564C118.737 13.3096 119.649 13.0862 120.667 13.0862C121.647 13.0862 122.528 13.2972 123.31 13.7192C124.105 14.1288 124.732 14.7246 125.191 15.5065C125.65 16.2761 125.88 17.2008 125.88 18.2807C125.88 18.3924 125.874 18.5227 125.861 18.6716C125.849 18.8082 125.836 18.9385 125.824 19.0626H117.688V17.3684H124.297L123.18 17.8711C123.18 17.3497 123.075 16.8967 122.864 16.5119C122.653 16.1272 122.361 15.8293 121.989 15.6183C121.616 15.3948 121.182 15.2831 120.685 15.2831C120.189 15.2831 119.748 15.3948 119.363 15.6183C118.991 15.8293 118.699 16.1334 118.488 16.5305C118.277 16.9153 118.172 17.3746 118.172 17.9083V18.3551C118.172 18.9013 118.29 19.3853 118.526 19.8073C118.774 20.2169 119.115 20.5335 119.55 20.7569C119.996 20.9679 120.518 21.0734 121.113 21.0734C121.647 21.0734 122.113 20.9927 122.51 20.8313C122.919 20.67 123.292 20.428 123.627 20.1052L125.172 21.7809C124.713 22.3022 124.136 22.7056 123.441 22.9911C122.746 23.2641 121.945 23.4007 121.039 23.4007Z" fill="#0A0A0A"/>
<path d="M110.036 23.4007C108.956 23.4007 107.994 23.1834 107.15 22.749C106.306 22.3022 105.642 21.6878 105.158 20.9058C104.687 20.1239 104.451 19.2364 104.451 18.2434C104.451 17.238 104.687 16.3506 105.158 15.581C105.642 14.7991 106.306 14.1909 107.15 13.7564C107.994 13.3096 108.956 13.0862 110.036 13.0862C111.091 13.0862 112.01 13.3096 112.792 13.7564C113.574 14.1909 114.151 14.8177 114.523 15.6369L112.27 16.8471C112.01 16.3754 111.681 16.0279 111.284 15.8044C110.899 15.581 110.477 15.4693 110.018 15.4693C109.521 15.4693 109.074 15.581 108.677 15.8044C108.28 16.0279 107.963 16.3444 107.727 16.754C107.504 17.1636 107.392 17.66 107.392 18.2434C107.392 18.8268 107.504 19.3233 107.727 19.7329C107.963 20.1425 108.28 20.459 108.677 20.6824C109.074 20.9058 109.521 21.0175 110.018 21.0175C110.477 21.0175 110.899 20.912 111.284 20.701C111.681 20.4776 112.01 20.1239 112.27 19.6398L114.523 20.8686C114.151 21.6754 113.574 22.3022 112.792 22.749C112.01 23.1834 111.091 23.4007 110.036 23.4007Z" fill="#0A0A0A"/>
<path d="M98.3381 13.0862C99.1325 13.0862 99.84 13.2475 100.461 13.5703C101.094 13.8806 101.59 14.3646 101.95 15.0225C102.31 15.6679 102.49 16.4995 102.49 17.5173V23.2517H99.5856V17.9641C99.5856 17.1574 99.4056 16.5616 99.0456 16.1768C98.6981 15.792 98.2016 15.5996 97.5562 15.5996C97.0969 15.5996 96.6811 15.6989 96.3088 15.8975C95.9488 16.0837 95.6633 16.3754 95.4523 16.7726C95.2537 17.1698 95.1544 17.6787 95.1544 18.2993V23.2517H92.25V13.2351H95.0241V16.0092L94.5028 15.1714C94.8628 14.5012 95.3779 13.9861 96.0481 13.6261C96.7184 13.2662 97.4817 13.0862 98.3381 13.0862Z" fill="#0A0A0A"/>
<path d="M86.6496 23.2518V13.2352H89.5541V23.2518H86.6496ZM88.1019 11.8388C87.5681 11.8388 87.1337 11.6837 86.7986 11.3734C86.4635 11.063 86.2959 10.6783 86.2959 10.219C86.2959 9.75978 86.4635 9.375 86.7986 9.0647C87.1337 8.75439 87.5681 8.59924 88.1019 8.59924C88.6356 8.59924 89.07 8.74819 89.4051 9.04608C89.7403 9.33156 89.9078 9.70392 89.9078 10.1632C89.9078 10.6472 89.7403 11.0506 89.4051 11.3734C89.0824 11.6837 88.648 11.8388 88.1019 11.8388Z" fill="#0A0A0A"/>
<path d="M78.686 23.2517V13.2351H81.4601V16.0651L81.0692 15.2459C81.3671 14.5384 81.8449 14.0047 82.5028 13.6447C83.1606 13.2724 83.9612 13.0862 84.9045 13.0862V15.7672C84.7804 15.7548 84.6687 15.7486 84.5694 15.7486C84.4701 15.7362 84.3646 15.73 84.2529 15.73C83.4585 15.73 82.8131 15.9596 82.3166 16.4188C81.8325 16.8657 81.5905 17.567 81.5905 18.5227V23.2517H78.686Z" fill="#0A0A0A"/>
<path d="M65.4546 23.2517V10.219H71.0959C72.2626 10.219 73.268 10.4114 74.112 10.7962C74.9561 11.1685 75.6077 11.7084 76.067 12.4159C76.5262 13.1234 76.7558 13.9675 76.7558 14.948C76.7558 15.9162 76.5262 16.754 76.067 17.4615C75.6077 18.169 74.9561 18.7151 74.112 19.0999C73.268 19.4722 72.2626 19.6584 71.0959 19.6584H67.1302L68.4707 18.2993V23.2517H65.4546ZM68.4707 18.6344L67.1302 17.2008H70.9283C71.8592 17.2008 72.5543 17.0022 73.0136 16.605C73.4728 16.2078 73.7024 15.6555 73.7024 14.948C73.7024 14.2281 73.4728 13.6696 73.0136 13.2724C72.5543 12.8752 71.8592 12.6766 70.9283 12.6766H67.1302L68.4707 11.243V18.6344Z" fill="#0A0A0A"/>
<path d="M52 23.2517V10.219H57.6413C58.808 10.219 59.8134 10.4114 60.6575 10.7962C61.5015 11.1685 62.1531 11.7084 62.6124 12.4159C63.0716 13.1234 63.3012 13.9675 63.3012 14.948C63.3012 15.9162 63.0716 16.754 62.6124 17.4615C62.1531 18.169 61.5015 18.7151 60.6575 19.0999C59.8134 19.4722 58.808 19.6584 57.6413 19.6584H53.6756L55.0161 18.2993V23.2517H52ZM55.0161 18.6344L53.6756 17.2008H57.4737C58.4047 17.2008 59.0997 17.0022 59.559 16.605C60.0182 16.2078 60.2479 15.6555 60.2479 14.948C60.2479 14.2281 60.0182 13.6696 59.559 13.2724C59.0997 12.8752 58.4047 12.6766 57.4737 12.6766H53.6756L55.0161 11.243V18.6344Z" fill="#0A0A0A"/>
<path fill-rule="evenodd" clip-rule="evenodd" d="M20 0C17.7909 0 16 1.79086 16 4V28C16 30.2091 17.7909 32 20 32C22.2091 32 24 30.2091 24 28V20.0007C25.6713 21.2561 27.7488 22 30 22C35.5228 22 40 17.5228 40 12C40 6.47711 35.5228 1.99996 30 1.99996C27.7488 1.99996 25.6713 2.74385 24 3.99923C23.9996 1.79045 22.2089 0 20 0Z" fill="#3F3BE1"/>
<path fill-rule="evenodd" clip-rule="evenodd" d="M3.07692 0C1.37759 0 0 1.37759 0 3.07692V28.9231C0 30.6224 1.37759 32 3.07692 32H4.92308C6.62241 32 8 30.6224 8 28.9231V20.0007C9.67132 21.2561 11.7488 22 14 22C19.5228 22 24 17.5228 24 12C24 6.47711 19.5228 1.99996 14 1.99996C11.7488 1.99996 9.67132 2.74385 8 3.99923V3.07692C8 1.37759 6.62241 0 4.92308 0H3.07692Z" fill="#D2DBE8"/>
<path fill-rule="evenodd" clip-rule="evenodd" d="M16.1195 2.22498C16.0417 2.49551 16 2.78133 16 3.07689V21.7999C20.5645 20.8733 24 16.8378 24 11.9999C24 7.20431 20.6243 3.19713 16.1195 2.22498Z" fill="#151280"/>
</svg>
