<svg width="141" height="32" viewBox="0 0 141 32" fill="none" xmlns="http://www.w3.org/2000/svg">
<path fill-rule="evenodd" clip-rule="evenodd" d="M0.365234 4.90499e-06L18.9219 32L37.4785 0H37.4765L25.1836 21.1986L12.8907 4.90499e-06H0.365234Z" fill="#367A53"/>
<path fill-rule="evenodd" clip-rule="evenodd" d="M25.1831 21.2003L31.4458 32L50.0024 0H37.477L25.1831 21.2003Z" fill="#DE5C2A"/>
<path fill-rule="evenodd" clip-rule="evenodd" d="M37.4765 0L12.8906 4.90499e-06L25.1836 21.1986L37.4765 0Z" fill="#AF5528"/>
<path d="M140.52 12.6683V14.6221H134.049V12.6683H140.52ZM135.782 9.93311H138.548V20.5861C138.548 20.9151 138.593 21.1688 138.683 21.347C138.774 21.5252 138.909 21.6452 139.09 21.7069C139.271 21.7686 139.487 21.7994 139.737 21.7994C139.918 21.7994 140.085 21.7891 140.238 21.7686C140.392 21.748 140.52 21.7275 140.625 21.7069L140.635 23.7429C140.405 23.8183 140.145 23.88 139.852 23.928C139.567 23.976 139.243 23.9999 138.882 23.9999C138.262 23.9999 137.72 23.8971 137.253 23.6915C136.787 23.479 136.425 23.1396 136.168 22.6735C135.911 22.2005 135.782 21.5766 135.782 20.802V9.93311Z" fill="black"/>
<path d="M128.748 24.0002C127.892 24.0002 127.124 23.8631 126.442 23.5889C125.76 23.3146 125.179 22.9342 124.699 22.4475C124.226 21.9539 123.86 21.3815 123.603 20.7302C123.352 20.0721 123.227 19.3661 123.227 18.612V18.2007C123.227 17.3438 123.352 16.5657 123.603 15.8665C123.853 15.1604 124.208 14.5537 124.667 14.0464C125.127 13.5392 125.676 13.1484 126.316 12.8742C126.957 12.6 127.663 12.4629 128.435 12.4629C129.235 12.4629 129.942 12.5966 130.554 12.8639C131.166 13.1244 131.678 13.4946 132.088 13.9745C132.499 14.4543 132.808 15.0302 133.017 15.702C133.226 16.3669 133.33 17.1039 133.33 17.9128V19.0542H124.479V17.1827H130.616V16.977C130.603 16.5452 130.519 16.151 130.366 15.7945C130.213 15.4312 129.976 15.1433 129.656 14.9308C129.336 14.7114 128.922 14.6017 128.414 14.6017C128.004 14.6017 127.645 14.6908 127.339 14.8691C127.04 15.0404 126.79 15.2872 126.588 15.6094C126.393 15.9248 126.247 16.3018 126.149 16.7405C126.052 17.1793 126.003 17.666 126.003 18.2007V18.612C126.003 19.0781 126.066 19.51 126.191 19.9076C126.323 20.3052 126.515 20.6514 126.765 20.9462C127.023 21.2341 127.329 21.4603 127.684 21.6248C128.045 21.7825 128.456 21.8613 128.915 21.8613C129.493 21.8613 130.015 21.7517 130.481 21.5323C130.954 21.3061 131.364 20.9736 131.712 20.5349L133.1 21.9539C132.864 22.2967 132.544 22.6257 132.14 22.941C131.744 23.2564 131.264 23.5134 130.7 23.7122C130.136 23.9042 129.486 24.0002 128.748 24.0002Z" fill="black"/>
<path d="M121.044 8V23.7943H118.278V8H121.044Z" fill="black"/>
<path d="M115.495 8V23.7943H112.729V8H115.495Z" fill="black"/>
<path d="M107.31 21.4295V16.2984C107.31 15.9213 107.244 15.5957 107.112 15.3215C106.98 15.0473 106.778 14.8348 106.507 14.684C106.235 14.5332 105.891 14.4577 105.473 14.4577C105.105 14.4577 104.781 14.5194 104.503 14.6428C104.231 14.7662 104.023 14.941 103.877 15.1673C103.73 15.3866 103.657 15.6403 103.657 15.9282H100.892C100.892 15.4689 101.003 15.0336 101.226 14.6223C101.448 14.2041 101.765 13.8339 102.175 13.5117C102.593 13.1827 103.09 12.9256 103.668 12.7405C104.252 12.5554 104.906 12.4629 105.63 12.4629C106.486 12.4629 107.248 12.6068 107.916 12.8948C108.591 13.1758 109.119 13.6009 109.502 14.1698C109.892 14.7388 110.087 15.4552 110.087 16.3189V21.1724C110.087 21.7277 110.121 22.2041 110.191 22.6017C110.267 22.9925 110.379 23.3318 110.525 23.6197V23.7945H107.717C107.585 23.5134 107.484 23.157 107.415 22.7251C107.345 22.2864 107.31 21.8545 107.31 21.4295ZM107.697 17.0182L107.717 18.6326H105.974C105.543 18.6326 105.164 18.6771 104.837 18.7662C104.51 18.8485 104.242 18.9719 104.033 19.1364C103.824 19.2941 103.668 19.486 103.563 19.7122C103.459 19.9316 103.407 20.1818 103.407 20.4629C103.407 20.7371 103.47 20.9839 103.595 21.2033C103.727 21.4226 103.915 21.5974 104.158 21.7277C104.409 21.8511 104.701 21.9128 105.035 21.9128C105.522 21.9128 105.947 21.8168 106.308 21.6248C106.67 21.426 106.952 21.1861 107.154 20.9051C107.356 20.624 107.463 20.3566 107.477 20.103L108.271 21.2752C108.173 21.5563 108.027 21.8545 107.832 22.1698C107.637 22.4852 107.387 22.7799 107.081 23.0542C106.775 23.3284 106.406 23.5546 105.974 23.7328C105.543 23.911 105.042 24.0002 104.471 24.0002C103.741 24.0002 103.087 23.8562 102.509 23.5683C101.932 23.2804 101.476 22.8862 101.142 22.3858C100.808 21.8853 100.641 21.3164 100.641 20.6788C100.641 20.0893 100.752 19.5683 100.975 19.1158C101.198 18.6634 101.528 18.2829 101.967 17.9745C102.405 17.6591 102.948 17.4226 103.595 17.2649C104.249 17.1004 104.997 17.0182 105.839 17.0182H107.697Z" fill="black"/>
<path d="M86.625 20.9256L89.6517 8.82275H91.2903L91.3947 11.3729L88.1592 23.7945H86.4267L86.625 20.9256ZM84.715 8.82275L87.199 20.8845V23.7945H85.3099L81.8657 8.82275H84.715ZM94.5362 20.833L96.9785 8.82275H99.8382L96.394 23.7945H94.5049L94.5362 20.833ZM92.0731 8.82275L95.0998 20.9667L95.2772 23.7945H93.5447L90.3197 11.3626L90.4449 8.82275H92.0731Z" fill="black"/>
<path d="M75.2607 18.7148H71.4825V15.9282H75.2607C75.7756 15.9282 76.193 15.8425 76.5131 15.6711C76.8332 15.4997 77.0663 15.2632 77.2124 14.9616C77.3655 14.6531 77.442 14.3069 77.442 13.923C77.442 13.5117 77.3655 13.1312 77.2124 12.7816C77.0663 12.432 76.8332 12.1509 76.5131 11.9384C76.193 11.7191 75.7756 11.6094 75.2607 11.6094H72.8602V23.7945H69.1968V8.82275H75.2607C76.4783 8.82275 77.5255 9.04212 78.4022 9.48085C79.2859 9.91958 79.9643 10.5228 80.4374 11.2906C80.9106 12.0515 81.1471 12.9222 81.1471 13.9024C81.1471 14.869 80.9106 15.7122 80.4374 16.432C79.9643 17.1518 79.2859 17.7139 78.4022 18.1184C77.5255 18.516 76.4783 18.7148 75.2607 18.7148Z" fill="black"/>
<path d="M60.8187 20.2675L63.9811 8.82275H68.0828L62.9583 23.7945H60.3073L60.8187 20.2675ZM57.9485 8.82275L61.1109 20.2675L61.6432 23.7945H58.9609L53.8677 8.82275H57.9485Z" fill="black"/>
</svg>
