<svg width="117" height="139" viewBox="0 0 117 139" fill="none" xmlns="http://www.w3.org/2000/svg">
<path fill-rule="evenodd" clip-rule="evenodd" d="M26 0H0V104H26V65.0024C31.4318 69.0823 38.1835 71.4999 45.4998 71.4999C63.4491 71.4999 77.9998 56.9492 77.9998 38.9999C77.9998 21.0506 63.4491 6.49989 45.4998 6.49989C38.1835 6.49989 31.4318 8.91748 26 12.9974V0Z" fill="#D2DBE8"/>
<path fill-rule="evenodd" clip-rule="evenodd" d="M64.9995 34.125H38.9995V138.125H64.9995V99.1273C70.4313 103.207 77.1829 105.625 84.4992 105.625C102.448 105.625 116.999 91.0739 116.999 73.1246C116.999 55.1754 102.448 40.6246 84.4992 40.6246C77.1829 40.6246 70.4313 43.0422 64.9995 47.122V34.125Z" fill="#3F3BE1"/>
<path fill-rule="evenodd" clip-rule="evenodd" d="M77.9203 41.2909C73.1482 42.2719 68.7579 44.2991 64.9995 47.122V34.125H38.9995V70.8494C41.0998 71.2758 43.2737 71.4996 45.4998 71.4996C62.6788 71.4996 76.7446 58.171 77.9203 41.2909Z" fill="#151280"/>
</svg>
