<svg width="738" height="738" viewBox="0 0 738 738" fill="none" xmlns="http://www.w3.org/2000/svg">
<path d="M0 63.984C0 28.6466 28.6466 0 63.9841 0H673.679C709.016 0 737.663 28.6466 737.663 63.9841V673.679C737.663 709.016 709.016 737.663 673.679 737.663H63.984C28.6466 737.663 0 709.016 0 673.679V63.984Z" fill="url(#paint0_linear_1934_65)"/>
<path fill-rule="evenodd" clip-rule="evenodd" d="M58.8354 460.587C58.0324 460.446 57.7179 459.457 58.2971 458.883C64.4621 452.775 70.5478 446.758 76.5672 440.807L76.6129 440.762L76.6289 440.746C94.7187 422.861 112.211 405.568 129.461 388.153C159 358.695 188.48 329.179 217.965 299.656L217.97 299.651L217.975 299.646L217.98 299.641L217.985 299.636L217.99 299.631C269.608 247.949 321.242 196.25 373.238 144.823C413.198 105.309 461.418 91.915 515.665 107.095C568.093 121.671 601.442 156.598 615.917 208.365C623.873 207.735 631.878 208.721 639.45 211.268C647.432 213.953 654.749 218.312 660.911 224.052C667.073 229.792 671.939 236.781 675.183 244.553C678.426 252.325 679.973 260.7 679.72 269.117L662.65 268.604C662.004 271.246 661.153 273.842 660.099 276.365C657.223 283.257 652.908 289.456 647.444 294.546C641.979 299.636 635.491 303.501 628.412 305.882C621.591 308.177 614.372 309.043 607.207 308.429C599.765 323.883 589.592 337.801 576.832 350.426C535.011 391.949 493.388 433.672 451.765 475.394C430.955 496.253 410.146 517.112 389.311 537.947C386.667 540.591 384.182 543.235 381.316 546.286L380.377 547.286C380.007 547.679 380.016 548.297 380.398 548.679C398.682 566.962 416.321 584.598 433.959 602.016C435.968 603.802 439.094 605.365 441.549 605.588C450.873 605.921 460.322 605.881 470.265 605.84L470.278 605.84C472.87 605.829 475.495 605.818 478.16 605.813C479.057 605.812 479.501 604.722 478.859 604.096C460.788 586.451 443.513 569.603 426.45 552.966C426.041 552.567 426.05 551.907 426.467 551.517C433.229 545.208 438.747 539.932 444.694 534.247L444.702 534.239L444.705 534.235C446.821 532.212 448.991 530.138 451.291 527.946C451.701 527.555 452.353 527.582 452.722 528.011C453.843 529.316 455.028 530.793 456.284 532.359C458.868 535.579 461.751 539.173 464.989 542.411C483.965 561.61 503.163 581.032 522.808 599.784C526.38 603.132 532.184 605.365 537.096 605.811C545.487 606.433 553.987 606.297 562.746 606.157H562.747H562.747H562.747H562.748H562.748H562.751H562.753H562.756H562.759L562.762 606.157C566.256 606.101 569.791 606.045 573.376 606.036C573.929 606.034 574.377 606.482 574.377 607.035V636.511C574.377 637.063 573.929 637.511 573.377 637.511H353.477C352.925 637.511 352.477 637.064 352.477 636.511V607.481C352.477 606.929 352.925 606.481 353.477 606.481H387.081C387.977 606.481 388.422 605.391 387.783 604.761C379.053 596.15 371.228 587.861 363.24 579.4C354.023 569.638 344.591 559.646 333.302 548.666C332.917 548.291 332.893 547.674 333.259 547.281C335.625 544.746 337.678 543.1 339.597 541.563L339.597 541.562C341.039 540.407 342.405 539.312 343.771 537.947L344.134 537.585C414.332 467.609 484.309 397.855 554.285 327.655C591.119 290.821 599.379 238.36 576.386 194.382C540.444 126.517 451.148 113.123 395.785 167.816C367.965 195.339 340.343 223.06 312.721 250.781L312.711 250.791L312.7 250.802L312.695 250.807L312.693 250.809L312.69 250.812C298.874 264.677 285.058 278.543 271.218 292.384C249.788 313.814 228.357 335.188 206.927 356.563C185.495 377.939 164.064 399.314 142.632 420.746C140.912 422.466 139.192 424.35 136.352 427.657C135.777 428.327 136.294 429.365 137.176 429.331C141.385 429.165 145.468 429.268 149.446 429.369C164.129 429.74 177.395 430.076 190.405 416.728C230.254 375.038 271.232 334.478 312.21 293.918C325.87 280.398 339.529 266.878 353.147 253.317C385.739 220.724 434.629 219.608 465.882 250.861C496.466 281.668 495.573 330.334 463.203 362.704C459.881 366.026 456.566 369.371 453.246 372.72L453.243 372.724C438.273 387.826 423.208 403.025 406.947 416.728C378.959 440.259 346.843 454.537 311.849 459.562L228.609 542.803H181.513L259.318 461.848C251.876 461.905 244.434 461.949 236.992 461.981L132.274 566.699L82.1914 566.238L185.729 462.059C167.037 462.044 148.339 461.993 129.63 461.943H129.625C107.522 461.883 85.4057 461.823 63.2691 461.822C63.0527 461.822 62.8448 461.748 62.6603 461.635C61.9683 461.211 61.0239 460.972 58.8354 460.587ZM614.999 288.546C617.397 288.301 619.768 287.789 622.066 287.016C626.458 285.538 630.485 283.14 633.876 279.981C635.461 278.505 636.889 276.879 638.144 275.129H618.456C618.435 275.236 618.414 275.344 618.392 275.451L618.355 275.641C617.413 280.048 616.293 284.348 614.999 288.546ZM645.612 240.476C647.458 242.196 649.117 244.097 650.565 246.145H621.926V230.652C625.446 230.78 628.939 231.414 632.294 232.543C637.247 234.209 641.788 236.914 645.612 240.476ZM223.445 425.211C221.299 427.863 223.445 429.006 225.9 429.006C229.744 429.006 233.413 429.06 237.139 429.115H237.14H237.142H237.143H237.145H237.147C240.992 429.172 244.898 429.229 249.117 429.229C259.365 429.229 266.307 426.327 273.227 419.183C299.534 392.398 326.183 365.84 352.849 339.266L352.867 339.247L352.886 339.228L352.892 339.222C363.548 328.603 374.206 317.981 384.846 307.341C386.009 306.178 387.158 304.988 388.31 303.794L388.311 303.793L388.315 303.789L388.321 303.783L388.326 303.777L388.328 303.776L388.328 303.776C391.816 300.162 395.335 296.516 399.357 293.5C406.054 288.365 413.421 288.812 419.672 294.616C425.923 300.42 426.592 307.564 421.904 314.931C420.118 317.61 417.663 320.065 415.207 322.298C404.657 332.848 394.106 343.423 383.548 354.007L383.523 354.031C362.365 375.239 341.174 396.479 319.884 417.621L319.883 417.622C318.456 419.227 317.029 420.833 314.805 423.463C314.194 424.186 314.84 425.263 315.764 425.058C346.845 418.19 372.1 405.193 393.776 385.251C410.965 369.401 427.262 352.658 443.558 335.915C453.158 326.093 457.399 313.815 455.613 300.197C453.381 281.668 443.335 268.497 425.699 262.023C407.17 255.326 390.651 260.014 376.81 273.855C366.442 284.223 356.087 294.591 345.736 304.956L345.713 304.98L345.69 305.003C314.603 336.131 283.548 367.228 252.242 398.199C245.895 404.856 239.118 410.976 232.359 417.081L232.358 417.081L232.354 417.085L232.351 417.087C229.366 419.783 226.385 422.476 223.445 425.211ZM539.33 214.488C539.33 226.543 529.507 236.365 517.452 236.365C505.397 236.365 495.575 226.319 495.575 214.264C495.575 202.209 505.397 192.387 517.452 192.61C529.954 192.833 539.33 202.209 539.33 214.488Z" fill="white"/>
<defs>
<linearGradient id="paint0_linear_1934_65" x1="368.832" y1="-4.85431" x2="-486.772" y2="840.593" gradientUnits="userSpaceOnUse">
<stop stop-color="#FF5C39"/>
<stop offset="1" stop-color="#E00ED8"/>
</linearGradient>
</defs>
</svg>
