<svg width="64" height="64" viewBox="0 0 64 64" fill="none" xmlns="http://www.w3.org/2000/svg">
<path d="M41.1515 42.0931C38.7354 41.385 36.2291 41.0326 33.7115 41.047C29.5826 41.0412 25.515 42.0453 21.863 43.9717L24.2149 39.9689L26.3142 36.4108L31.9823 26.7612L37.3194 35.6564L28.5202 20.9686L19.0699 37.0939L9.60889 53.4612H16.4511C20.7304 49.6658 26.2343 47.5398 31.9538 47.4729C38.2232 47.448 43.8948 49.7288 47.9653 53.447L41.1515 42.0931Z" fill="url(#paint0_linear_2007_18971)"/>
<path d="M28.6982 9.25067L17.266 28.6175L5.8374 47.9985L7.7232 50.6101L9.609 53.4566L19.07 37.0893L28.5203 20.9711L37.2911 35.6483C36.0396 35.4825 34.7783 35.4017 33.5159 35.4063C31.0785 35.4127 28.6528 35.7453 26.3036 36.3955L24.2044 39.9536L21.8524 43.9565C25.5044 42.03 29.5721 41.026 33.7009 41.0317C36.2186 41.0174 38.7249 41.3698 41.141 42.0778L47.9405 53.4388H55.1741L28.6982 9.25067Z" fill="url(#paint1_linear_2007_18971)"/>
<path d="M28.6982 9.24817L55.1848 53.4541L58.5401 47.7967L35.3483 9.22327L28.6982 9.24817Z" fill="url(#paint2_linear_2007_18971)"/>
<defs>
<linearGradient id="paint0_linear_2007_18971" x1="20.1694" y1="25.2952" x2="30.9148" y2="60.4316" gradientUnits="userSpaceOnUse">
<stop offset="0.39" stop-color="#FF9373"/>
<stop offset="0.51" stop-color="#FE8F73"/>
<stop offset="0.62" stop-color="#FB8373"/>
<stop offset="0.73" stop-color="#F77073"/>
<stop offset="0.83" stop-color="#F15472"/>
<stop offset="0.94" stop-color="#E93172"/>
<stop offset="1" stop-color="#E41A72"/>
</linearGradient>
<linearGradient id="paint1_linear_2007_18971" x1="55.1848" y1="31.3536" x2="10.1036" y2="31.3536" gradientUnits="userSpaceOnUse">
<stop offset="0.09" stop-color="#FF9373"/>
<stop offset="0.15" stop-color="#FD8A73"/>
<stop offset="0.55" stop-color="#F04E72"/>
<stop offset="0.85" stop-color="#E72872"/>
<stop offset="1" stop-color="#E41A72"/>
</linearGradient>
<linearGradient id="paint2_linear_2007_18971" x1="55.3164" y1="31.3405" x2="37.1737" y2="31.3405" gradientUnits="userSpaceOnUse">
<stop stop-color="#FF9373"/>
<stop offset="1" stop-color="#E41A72"/>
</linearGradient>
</defs>
</svg>
