<svg width="65" height="64" viewBox="0 0 65 64" fill="none" xmlns="http://www.w3.org/2000/svg">
<path d="M32.4319 57.9732C46.9854 57.9732 58.7833 46.1753 58.7833 31.6219C58.7833 17.0684 46.9854 5.27051 32.4319 5.27051C17.8785 5.27051 6.08057 17.0684 6.08057 31.6219C6.08057 46.1753 17.8785 57.9732 32.4319 57.9732Z" fill="#767DFF"/>
<path fill-rule="evenodd" clip-rule="evenodd" d="M28.7592 15.9758H36.1046C36.3592 15.9756 36.6091 16.0433 36.8288 16.1718C37.0485 16.3004 37.23 16.4851 37.3547 16.707L48.7286 36.9959C48.8483 37.2098 48.9112 37.4508 48.9112 37.6959C48.9112 37.941 48.8483 38.182 48.7286 38.3958L45.0888 44.8881C44.9645 45.1101 44.7834 45.295 44.5639 45.4238C44.3445 45.5527 44.0948 45.6207 43.8404 45.621H21.0234C20.7687 45.621 20.5186 45.5531 20.2989 45.4243C20.0792 45.2954 19.8978 45.1104 19.7734 44.8881L16.1352 38.3958C16.0155 38.182 15.9526 37.941 15.9526 37.6959C15.9526 37.4508 16.0155 37.2098 16.1352 36.9959L27.5091 16.707C27.6338 16.4851 27.8153 16.3004 28.035 16.1718C28.2547 16.0433 28.5047 15.9756 28.7592 15.9758ZM32.4319 24.0475L24.7686 37.6959H40.0952L32.4319 24.0475Z" fill="white"/>
</svg>
