<svg width="64" height="64" viewBox="0 0 64 64" fill="none" xmlns="http://www.w3.org/2000/svg">
<path d="M53.4814 17.2786C54.4672 17.8479 55.075 18.9 55.075 20.0389V43.2049C55.075 44.3436 54.4674 45.3957 53.4817 45.9651L33.4309 57.5461C32.4449 58.1156 31.2301 58.1156 30.2441 57.5461L10.1933 45.9651C9.20764 45.3957 8.6001 44.3436 8.6001 43.2049V20.0388C8.6001 18.9001 9.20764 17.848 10.1933 17.2787L30.2389 5.69762C31.2249 5.12814 32.4396 5.12814 33.4256 5.69761L53.4814 17.2786ZM53.1339 17.8809L33.0781 6.29983C32.3072 5.85456 31.3573 5.85456 30.5865 6.29981L10.5409 17.8808C9.77021 18.326 9.29519 19.1486 9.29519 20.0389V43.2048C9.29519 44.0951 9.77021 44.9177 10.5409 45.3629L30.5917 56.9439C31.3626 57.3892 32.3124 57.3892 33.0834 56.9439L53.1341 45.3629C53.9048 44.9177 54.3799 44.0951 54.3799 43.2049V20.039C54.3799 19.1486 53.9047 18.326 53.1339 17.8809Z" fill="url(#paint0_linear_2007_18973)"/>
<path d="M51.2242 18.803L33.2397 8.41654C32.3711 7.91487 31.301 7.91487 30.4324 8.41654L12.4492 18.803C11.5825 19.304 11.048 20.2287 11.0464 21.2302V42.0093C11.0464 43.0123 11.5812 43.939 12.4492 44.4408L30.4338 54.8272C31.3023 55.3289 32.3725 55.3289 33.241 54.8272L51.2258 44.4397C52.0939 43.938 52.6287 43.0112 52.6287 42.0083V21.2302C52.6267 20.2284 52.0916 19.3035 51.2242 18.803Z" fill="url(#paint1_linear_2007_18973)"/>
<path d="M18.8574 19.9478C19.2899 19.518 19.7209 19.0878 20.1505 18.6571C20.5829 19.0883 21.0144 19.5199 21.4449 19.952C21.0153 20.3832 20.5847 20.814 20.1531 21.2443C19.7209 20.8131 19.289 20.3809 18.8574 19.9478ZM22.7519 19.9494C23.1816 19.5182 23.6121 19.0874 24.0437 18.6571C24.4747 19.0869 24.9048 19.5171 25.3339 19.9478C24.9043 20.379 24.4737 20.8098 24.0421 21.2401C23.6113 20.8103 23.1812 20.3801 22.7519 19.9494ZM38.3424 19.9452C38.7721 19.514 39.2021 19.0837 39.6326 18.6545C40.065 19.0857 40.4965 19.5173 40.927 19.9494C40.4974 20.3806 40.0673 20.8113 39.6368 21.2416C39.2058 20.8089 38.7743 20.3767 38.3424 19.9452ZM42.2285 19.9533C42.6595 19.5207 43.092 19.0881 43.5258 18.6555C43.9568 19.0853 44.3874 19.5161 44.8176 19.9478L43.5203 21.2456C43.0893 20.8149 42.6587 20.3842 42.2285 19.9533ZM20.8055 21.8953C21.2365 21.4655 21.6671 21.0353 22.0972 20.6046C22.5283 21.0344 22.9583 21.4646 23.3874 21.8953C22.9578 22.3265 22.5272 22.7573 22.0956 23.1876C21.6646 22.7576 21.2346 22.3269 20.8055 21.8953ZM24.7111 21.8979C25.1393 21.471 25.5657 21.0428 25.9902 20.6133C26.4156 21.0431 26.8419 21.4715 27.2693 21.8985C26.8425 22.324 26.4161 22.7501 25.9902 23.1767C25.5634 22.7508 25.137 22.3246 24.7111 21.8979ZM36.4084 21.8895C36.8354 21.461 37.2634 21.0341 37.689 20.6028C38.1158 21.0322 38.5436 21.4616 38.9724 21.8911C38.5436 22.3181 38.1158 22.7457 37.689 23.1741C37.265 22.7435 36.8354 22.318 36.4084 21.8895ZM40.2889 21.8924C40.7185 21.4612 41.1486 21.031 41.5791 20.6017C42.0101 21.0315 42.4407 21.4623 42.8708 21.894C42.4412 22.3252 42.0112 22.7559 41.5807 23.1863C41.151 22.7533 40.7185 22.3235 40.2889 21.8924ZM18.8574 23.8439L20.1531 22.5476C20.5842 22.9788 21.0142 23.4096 21.4433 23.8399C21.0123 24.2725 20.5808 24.7041 20.1489 25.1348C19.7181 24.7048 19.2876 24.2745 18.8574 23.8439ZM22.7506 23.8425C23.1817 23.4128 23.6127 22.9825 24.0437 22.5519C24.4747 22.9817 24.9048 23.4119 25.3339 23.8425C24.9043 24.2737 24.4737 24.7045 24.0421 25.1348C23.6113 24.7048 23.1808 24.2741 22.7506 23.8425ZM26.6494 23.8354C27.0748 23.4084 27.5007 22.9819 27.9271 22.5558C28.3568 22.9856 28.7858 23.4154 29.2144 23.8452C28.789 24.2708 28.3631 24.6964 27.9366 25.1221C27.507 24.6938 27.0779 24.2649 26.6494 23.8354ZM34.4661 23.8354C34.8915 23.4084 35.317 22.9819 35.7426 22.5558C36.1708 22.9828 36.5981 23.4103 37.0246 23.8383C36.5963 24.2626 36.1722 24.691 35.7439 25.1153C35.3209 24.6868 34.8915 24.2626 34.4661 23.8354ZM38.3424 23.8396C38.7735 23.407 39.2049 22.9754 39.6368 22.5447C40.0679 22.9745 40.4984 23.4053 40.9286 23.837C40.4976 24.2696 40.0661 24.7017 39.6342 25.1332C39.2046 24.7008 38.7721 24.271 38.3424 23.8396ZM42.2349 23.8396C42.6645 23.4084 43.0945 22.9782 43.525 22.549C43.956 22.9787 44.3866 23.4095 44.8168 23.8412C44.3872 24.2724 43.9571 24.7032 43.5266 25.1335C43.0975 24.7008 42.6653 24.271 42.2349 23.8396ZM30.5397 23.9719L31.8161 22.695C32.2647 23.1107 32.7046 23.535 33.1329 23.9719C32.7033 24.4073 32.2644 24.8324 31.8161 25.2473C31.3905 24.8217 30.9651 24.3966 30.5397 23.9719ZM20.8097 25.7911C21.2393 25.3641 21.6694 24.9366 22.0999 24.5086C22.5253 24.937 22.9512 25.364 23.3776 25.7898C22.9508 26.2182 22.5239 26.6461 22.097 27.0736C21.6675 26.6466 21.2384 26.2191 20.8097 25.7911ZM28.5972 25.7829C29.0226 25.3558 29.448 24.9318 29.8736 24.5047C30.299 24.9302 30.724 25.3559 31.1485 25.7816C30.7244 26.2072 30.2977 26.6327 29.8736 27.0586C29.4482 26.6337 29.0227 26.2085 28.5972 25.7829ZM32.521 25.7829C32.9432 25.3545 33.3718 24.9331 33.7945 24.5047C34.231 24.9234 34.6482 25.3587 35.0791 25.7829C34.6509 26.2072 34.2255 26.637 33.7972 27.0625C33.3731 26.6341 32.9458 26.2101 32.521 25.7829ZM40.3084 25.7842C40.7325 25.3558 41.1579 24.9302 41.582 24.5017C42.013 24.9287 42.4426 25.3562 42.8708 25.7842C42.4398 26.2112 42.0098 26.6387 41.5807 27.0667C41.1579 26.637 40.7307 26.2127 40.3084 25.7842ZM22.7562 27.7302C23.1816 27.3032 23.6085 26.8767 24.0368 26.4506C24.4636 26.8804 24.8918 27.3097 25.3215 27.7386C24.8961 28.1656 24.4701 28.5917 24.0437 29.0169C23.6141 28.5889 23.1849 28.16 22.7562 27.7302ZM30.5423 27.7273C30.9663 27.3017 31.3908 26.877 31.8159 26.4532C32.2636 26.8677 32.7025 27.2928 33.1327 27.7286C32.7045 28.1654 32.2661 28.5901 31.8174 29.0026C31.3919 28.5772 30.9668 28.1521 30.5423 27.7273ZM38.362 27.7302C38.786 27.3046 39.2105 26.8804 39.6355 26.4574C40.0609 26.883 40.4868 27.3072 40.9133 27.7302C40.4863 28.1526 40.0609 28.5787 39.6355 29.0016C39.2128 28.5757 38.786 28.1544 38.362 27.7302ZM24.7042 29.6774C25.1296 29.2504 25.5555 28.8248 25.982 28.4005C26.406 28.8246 26.83 29.2493 27.2542 29.6745C26.8302 30.1001 26.4053 30.5262 25.9793 30.9528C25.5552 30.5272 25.1301 30.1021 24.7042 29.6774ZM36.4113 29.6774C36.8367 29.2518 37.2626 28.8262 37.689 28.4005C38.1144 28.8246 38.539 29.2503 38.9626 29.6774C38.5386 30.103 38.1141 30.5286 37.689 30.9544C37.265 30.5272 36.8367 30.1032 36.4113 29.6774ZM22.7596 31.622C23.185 31.195 23.6109 30.7694 24.0374 30.3451C24.4614 30.7706 24.8859 31.1963 25.3109 31.622C24.8869 32.0476 24.4624 32.4732 24.0374 32.899C23.61 32.4732 23.1841 32.0476 22.7596 31.622ZM26.6494 31.622C27.0748 31.1964 27.5002 30.7713 27.9258 30.3466C28.3498 30.7722 28.7741 31.1973 29.1986 31.622C28.7763 32.0476 28.3523 32.4727 27.9263 32.8974C27.5004 32.4718 27.0748 32.0467 26.6494 31.622ZM34.4645 31.622C34.8899 31.1935 35.3196 30.7693 35.7452 30.3408C36.1722 30.7664 36.5976 31.1962 37.0243 31.622C36.5975 32.0476 36.1711 32.4746 35.7452 32.9032C35.3209 32.4747 34.8902 32.0505 34.4645 31.622ZM38.2464 31.622C38.6829 31.2118 39.0724 30.7458 39.5408 30.3701C39.944 30.8028 40.3916 31.1935 40.8006 31.622C40.3918 32.0476 39.9511 32.4404 39.545 32.8697C39.0681 32.5067 38.6873 32.0296 38.2464 31.622ZM24.7042 33.5666L25.9791 32.2912C26.4045 32.7184 26.8299 33.1424 27.2539 33.5695C26.83 33.9951 26.4059 34.4198 25.9817 34.8436C25.5563 34.4178 25.1305 33.9922 24.7042 33.5666ZM36.4126 33.5666C36.8367 33.141 37.265 32.7168 37.689 32.2897C38.1144 32.7152 38.5394 33.1409 38.9639 33.5666C38.5369 33.9909 38.1171 34.422 37.6861 34.8407C37.2621 34.4151 36.8367 33.9922 36.4126 33.5666ZM22.7562 35.5139C23.1844 35.0841 23.6136 34.6552 24.0437 34.2271C24.4705 34.6527 24.8964 35.0788 25.3215 35.5054C24.8933 35.9352 24.465 36.3645 24.0368 36.7934C23.6085 36.3679 23.1816 35.9414 22.7562 35.5139ZM30.5368 35.5168C30.9636 35.0898 31.3905 34.6633 31.8174 34.2372C32.2694 34.6516 32.7097 35.0773 33.1382 35.5141C32.7086 35.9541 32.2678 36.382 31.8159 36.7979C31.3891 36.3708 30.9627 35.9437 30.5368 35.5168ZM38.362 35.5152C38.786 35.0896 39.2128 34.6667 39.6355 34.2424C40.0623 34.6666 40.4887 35.0904 40.9146 35.5139C40.4892 35.938 40.0628 36.3622 39.6355 36.7866C39.2114 36.3622 38.7868 35.9384 38.362 35.5152ZM20.8084 37.4529C21.238 37.0259 21.6676 36.5984 22.0972 36.1704C22.524 36.5974 22.9509 37.0253 23.3779 37.4542C22.9509 37.8798 22.5249 38.3073 22.0999 38.7367C21.6689 38.3096 21.2393 37.8787 20.8084 37.4529ZM28.5903 37.4611C29.0185 37.0327 29.4463 36.6052 29.8736 36.1786C30.3018 36.6056 30.73 37.0331 31.1582 37.4611C30.7314 37.8895 30.3041 38.3179 29.8762 38.7462C29.4466 38.3193 29.018 37.8909 28.5903 37.4611ZM32.5125 37.4611C32.9408 37.0313 33.3718 36.6042 33.7987 36.1744C34.227 36.6015 34.6553 37.0313 35.085 37.4569C34.6553 37.8867 34.2262 38.3169 33.7974 38.7475C33.369 38.3193 32.9407 37.8905 32.5125 37.4611ZM40.3071 37.4598C40.7293 37.0313 41.1579 36.6044 41.5807 36.1746C42.0103 36.603 42.4409 37.0314 42.8724 37.4598C42.4428 37.8882 42.0127 38.3161 41.5822 38.7436C41.1579 38.3151 40.7307 37.8882 40.3071 37.4598ZM30.5312 39.2721C30.9594 38.8451 31.3876 38.4172 31.8159 37.9883C32.2692 38.4041 32.7099 38.8331 33.1438 39.2708C32.7113 39.7117 32.2692 40.1415 31.8174 40.5602C31.3878 40.1304 30.9591 39.701 30.5312 39.2721ZM18.8574 39.4015L20.1492 38.1092C20.5816 38.5404 21.0131 38.972 21.4436 39.4041C21.014 39.8353 20.5839 40.2661 20.1534 40.6964C19.721 40.2639 19.289 39.8323 18.8574 39.4015ZM22.7506 39.4002C23.1817 38.9704 23.6122 38.5401 24.0424 38.1095C24.4734 38.5393 24.904 38.97 25.3341 39.4017C24.9045 39.8329 24.4745 40.2632 24.044 40.6924C23.6128 40.2626 23.1817 39.8319 22.7506 39.4002ZM26.6409 39.407C27.0734 38.9772 27.5044 38.5445 27.9366 38.1147C28.3648 38.5431 28.7936 38.9715 29.2229 39.3999C28.7918 39.8339 28.3608 40.2665 27.9298 40.6977C27.5002 40.2681 27.0705 39.8379 26.6409 39.407ZM34.4564 39.4086C34.886 38.9775 35.3185 38.549 35.7452 38.1179C36.1748 38.5477 36.6049 38.9766 37.0354 39.4046C36.6044 39.8358 36.1738 40.267 35.7436 40.6982C35.3142 40.2683 34.8851 39.8384 34.4564 39.4086ZM38.3424 39.4044C38.7721 38.9733 39.2046 38.5419 39.6342 38.1108C40.0652 38.5434 40.4967 38.9755 40.9286 39.407L39.6368 40.6993C39.2049 40.2681 38.7735 39.8364 38.3424 39.4044ZM42.2349 39.4044C42.6645 38.9733 43.097 38.5419 43.5266 38.1108C43.9562 38.542 44.3863 38.9727 44.8168 39.4031C44.3872 39.8342 43.9566 40.265 43.525 40.6953C43.0945 40.2654 42.6645 39.835 42.2349 39.4044ZM20.8042 41.3474C21.2352 40.9176 21.6658 40.4874 22.0959 40.0567C22.5269 40.4865 22.9575 40.9173 23.3877 41.349C22.958 41.7802 22.528 42.2104 22.0975 42.6397C21.6663 42.2099 21.2352 41.7791 20.8042 41.3474ZM24.7 41.3487C25.1282 40.9175 25.5578 40.4877 25.9888 40.0593C26.4199 40.4877 26.8499 40.9175 27.279 41.3487C26.8494 41.7785 26.4198 42.2112 25.9902 42.641C25.5592 42.2112 25.1296 41.7788 24.7 41.3487ZM36.3973 41.3516C36.8269 40.9204 37.2579 40.4892 37.6904 40.058C38.1214 40.4906 38.5529 40.9218 38.9848 41.3516C38.5523 41.7828 38.1209 42.2149 37.6904 42.6478C37.2579 42.2168 36.8269 41.7847 36.3973 41.3516ZM40.2889 41.3516C40.7185 40.9205 41.151 40.4891 41.5807 40.058C42.0103 40.4892 42.4403 40.92 42.8708 41.3503C42.4412 41.7815 42.0106 42.2122 41.5791 42.6426C41.1482 42.2122 40.7182 41.7819 40.2889 41.3516ZM18.8616 43.2907C19.2913 42.8595 19.7218 42.4287 20.1534 41.9984L21.4452 43.2907L20.1534 44.5829C19.7224 44.154 19.2918 43.7233 18.8616 43.2907ZM22.7506 43.2946C23.1817 42.8648 23.6122 42.4346 24.0424 42.004C24.4734 42.4337 24.904 42.8645 25.3341 43.2962C24.9045 43.7274 24.4745 44.1576 24.044 44.5869C23.6128 44.1571 23.1817 43.7264 22.7506 43.2946ZM38.3424 43.2989C38.7735 42.8663 39.2049 42.4342 39.6368 42.0026C40.0665 42.4338 40.4965 42.8646 40.927 43.2949C40.496 43.7275 40.0645 44.1591 39.6326 44.5898C39.2016 44.16 38.7715 43.7297 38.3424 43.2989ZM42.2285 43.2907C42.6581 42.8595 43.0887 42.4287 43.5203 41.9984L44.8176 43.2962C44.388 43.7274 43.9574 44.1582 43.5258 44.5885C43.092 44.1568 42.6595 43.7242 42.2285 43.2907Z" fill="white"/>
<defs>
<linearGradient id="paint0_linear_2007_18973" x1="13.8151" y1="18.2705" x2="52.4282" y2="40.515" gradientUnits="userSpaceOnUse">
<stop stop-color="#0071BC"/>
<stop offset="1" stop-color="#662D91"/>
</linearGradient>
<linearGradient id="paint1_linear_2007_18973" x1="16.0086" y1="19.9727" x2="50.1866" y2="39.6074" gradientUnits="userSpaceOnUse">
<stop stop-color="#0071BC"/>
<stop offset="1" stop-color="#662D91"/>
</linearGradient>
</defs>
</svg>
