<svg width="64" height="64" viewBox="0 0 64 64" fill="none" xmlns="http://www.w3.org/2000/svg">
<path d="M32.0076 57.9736C30.7243 57.9736 29.441 57.6207 28.3181 56.9791L11.9242 47.5149C9.61425 46.1674 8.20264 43.7292 8.20264 41.0664V22.1379C8.20264 19.5072 9.61425 17.0369 11.8921 15.7215L28.3181 6.25728C30.5959 4.94191 33.4192 4.94191 35.7291 6.25728L52.123 15.7215C54.4009 17.0369 55.8125 19.5072 55.8125 22.1379V41.0984C55.8125 43.7292 54.4009 46.1995 52.123 47.5149L35.7291 56.9791C34.5741 57.6207 33.3229 57.9736 32.0076 57.9736ZM32.0076 7.8293C31.1734 7.8293 30.3393 8.05387 29.6014 8.47094L13.1754 17.9672C11.6675 18.8335 10.7692 20.4376 10.7692 22.1379V41.0984C10.7692 42.8309 11.6996 44.4029 13.1754 45.2691L29.5693 54.7654C31.0772 55.6316 32.9059 55.6316 34.4137 54.7654L50.8077 45.3012C52.2835 44.435 53.2138 42.863 53.2138 41.1305V22.1379C53.2138 20.4055 52.2835 18.8014 50.8077 17.9672L34.4458 8.47094C33.7079 8.05387 32.8738 7.8293 32.0076 7.8293ZM32.0076 49.3756C31.3018 49.3756 30.628 49.1831 30.0185 48.8302L18.0839 41.9647C16.8648 41.2588 16.0948 39.9435 16.0948 38.4998V24.7366C16.0948 23.325 16.8327 22.0096 18.0839 21.2717L30.0185 14.4061C31.2697 13.7003 32.7775 13.7003 33.9967 14.4061L45.8991 21.2717C47.1182 21.9775 47.8882 23.2929 47.8882 24.7366V38.4998C47.8882 39.9114 47.1182 41.2588 45.8991 41.9647L33.9646 48.8302C33.3871 49.1831 32.7134 49.3756 32.0076 49.3756ZM32.0076 15.7857C31.6547 15.7857 31.3018 15.8819 30.9809 16.0744L19.0464 22.94C18.4047 23.325 18.0198 23.9987 18.0198 24.7366V38.4998C18.0198 39.2377 18.4047 39.9114 19.0464 40.2964L30.9809 47.162C31.6226 47.5469 32.3925 47.5469 33.0342 47.162L44.9366 40.2964C45.5783 39.9114 45.9633 39.2377 45.9633 38.4998V24.7366C45.9633 23.9987 45.5783 23.325 44.9366 22.94L33.0342 16.0744C32.7454 15.8819 32.3925 15.7857 32.0076 15.7857ZM32.0076 40.6493C31.6547 40.6493 31.3018 40.553 30.9809 40.3926L24.9495 36.8636C24.3079 36.5107 23.9229 35.8049 23.9229 35.0991V28.1052C23.9229 27.3673 24.3079 26.6936 24.9495 26.3407L30.9809 22.8437C31.6226 22.4908 32.3925 22.4908 33.0342 22.8437L39.0656 26.3407C39.7073 26.6936 40.0923 27.3673 40.0923 28.1052V35.0991C40.0923 35.837 39.7073 36.5107 39.0656 36.8636L33.0342 40.3605C32.7134 40.553 32.3605 40.6493 32.0076 40.6493ZM32.0076 23.8703C31.8792 23.8703 31.7509 23.9024 31.6226 23.9666L25.5911 27.4635C25.3666 27.5919 25.2062 27.8485 25.2062 28.1052V35.0991C25.2062 35.3557 25.3666 35.6124 25.5911 35.7728L31.6226 39.2698C31.8472 39.3981 32.1359 39.3981 32.3925 39.2698L38.424 35.7728C38.6486 35.6445 38.809 35.3557 38.809 35.0991V28.1052C38.809 27.8485 38.6486 27.5919 38.424 27.4635L32.3925 23.9666C32.2642 23.9024 32.1359 23.8703 32.0076 23.8703Z" fill="url(#paint0_linear_2007_18976)"/>
<defs>
<linearGradient id="paint0_linear_2007_18976" x1="8.20264" y1="31.6111" x2="55.8253" y2="31.6111" gradientUnits="userSpaceOnUse">
<stop stop-color="#E168FD"/>
<stop offset="1" stop-color="#7B00FC"/>
</linearGradient>
</defs>
</svg>
