<svg width="64" height="64" viewBox="0 0 64 64" fill="none" xmlns="http://www.w3.org/2000/svg">
<path d="M44.4939 30.4767C44.4939 32.5282 42.8243 34.196 40.7709 34.196C38.717 34.196 37.0571 32.5282 37.0571 30.4767C37.0571 28.4251 38.7262 26.7578 40.7704 26.7578C41.2592 26.7571 41.7433 26.8527 42.1951 27.0393C42.6469 27.2259 43.0574 27.4997 43.4033 27.8451C43.7491 28.1905 44.0235 28.6008 44.2106 29.0523C44.3977 29.5038 44.494 29.9879 44.4939 30.4767Z" fill="black"/>
<path d="M56.7788 14.6726C56.2636 15.4969 49.3142 26.4204 48.6388 27.4601C48.4889 27.7034 48.3292 27.9378 48.1886 28.1717C48.0948 28.3216 47.9918 28.4715 47.898 28.6219C47.1758 25.8207 44.8313 23.6661 41.9243 23.2071C42.0557 23.001 46.1352 16.5557 47.1665 14.9163C47.2788 14.7287 47.3916 14.5886 47.6446 14.5886C50.6459 14.5978 53.6369 14.5978 56.6381 14.5978C56.666 14.6164 56.6943 14.6443 56.7788 14.6726Z" fill="#3467FE"/>
<path d="M58.5141 46.3269C57.0134 48.107 55.3253 49.3625 53.1781 49.8685C50.2242 50.5615 47.4202 50.243 44.8975 48.4254C43.0687 47.1044 41.9524 45.2496 41.1369 43.1888C41.109 43.1233 41.0803 43.0579 41.0524 42.9734C41.0431 42.9548 41.0431 42.9363 41.0338 42.9172C40.7085 42.0453 40.399 41.1676 40.1055 40.2845C39.8145 39.404 39.5332 38.4673 39.3457 37.6713C39.8145 37.7646 40.2926 37.8115 40.7897 37.8115C42.975 37.8115 44.9346 36.8562 46.2761 35.3477L46.2946 35.3292C46.7913 36.5564 47.3074 38.4766 47.7952 39.9661V39.9754C47.9266 40.3876 48.0575 40.7626 48.1889 41.081C48.7328 42.4299 49.3052 43.7601 50.3927 44.7627L50.6178 44.9595C52.0339 46.1301 53.7314 46.4393 55.504 46.4959C56.4602 46.5423 57.4168 46.4114 58.5141 46.3269Z" fill="#0217FF"/>
<path d="M34.5529 34.3927C32.8086 36.8281 30.9237 39.142 28.7013 41.1935C26.8256 42.9267 24.8284 44.4724 22.4273 45.409C21.5082 45.765 20.5613 45.9618 19.5671 45.9521C16.7729 45.9618 14.7654 44.2101 14.1652 41.2873C13.6403 38.6927 13.903 36.1259 14.634 33.624C15.9847 28.9871 18.3575 24.8839 21.5082 21.2403C22.9337 19.5911 24.5749 18.1768 26.7133 17.4927C28.2227 17.0146 29.7424 16.8744 31.224 17.6333C32.3589 18.214 33.1558 19.1604 33.7843 20.2372C34.6848 21.7736 35.2469 23.432 35.7254 25.1276C37.0875 23.8365 38.894 23.1187 40.7708 23.1229C41.1644 23.1229 41.5395 23.1508 41.915 23.2074C41.9428 23.1698 42.1025 22.9168 42.3559 22.5139C42.018 21.7458 41.7367 21.043 41.4178 20.3593C40.4143 18.233 39.0543 16.3968 37.0849 15.0665C34.7595 13.5023 32.1616 12.9964 29.3766 13.2303C25.8221 13.5301 22.5117 14.5606 19.4919 16.4251C14.6814 19.3943 10.9017 23.3666 8.25743 28.3596C6.56 31.5539 5.58388 34.9548 5.85634 38.6175C6.20353 43.3389 8.58559 46.7207 12.8247 48.7816C16.1258 50.3927 19.633 50.5333 23.1876 50.0933C26.1415 49.728 28.9269 48.763 31.496 47.2736C34.61 45.4749 37.3105 43.1235 39.8332 40.566C39.9177 40.4722 39.9738 40.3413 40.0959 40.2847C39.8054 39.4042 39.5241 38.4675 39.3361 37.6715C38.3578 37.479 37.4291 37.089 36.6067 36.5252C35.7844 35.9614 35.0857 35.2358 34.5534 34.3927" fill="#0219FA"/>
</svg>
