<svg width="65" height="64" viewBox="0 0 65 64" fill="none" xmlns="http://www.w3.org/2000/svg">
<path fill-rule="evenodd" clip-rule="evenodd" d="M25.0535 11.9133L11.6893 36.3686C10.854 37.9968 11.499 39.9951 13.1272 40.8304C13.3809 40.9573 13.6558 41.063 13.9307 41.1159C18.5829 42.2155 27.4642 39.4876 34.7067 42.2155C41.9492 44.9433 45.3008 50.5258 49.6886 53.4863C50.6719 54.1947 51.8455 54.5753 53.0508 54.5859H53.072C53.3257 54.5859 53.5583 54.5753 53.7909 54.5436C54.9117 54.4061 55.969 53.9409 56.8254 53.2114C57.3117 52.7885 57.7241 52.281 58.0518 51.7206C59.1303 49.9549 59.1726 47.7557 58.1576 45.9583L39.5491 11.9344C37.3605 7.93782 32.3383 6.46817 28.3417 8.65678C26.9461 9.39689 25.8042 10.5282 25.0535 11.9133Z" fill="url(#paint0_linear_2007_18979)"/>
<path fill-rule="evenodd" clip-rule="evenodd" d="M15.9714 45.8738C14.4383 43.3574 11.1606 42.5538 8.6337 44.0869C6.11732 45.62 5.31378 48.8976 6.84686 51.4246C8.36937 53.9304 11.6364 54.734 14.1528 53.222C16.6797 51.7101 17.5044 48.4219 15.9819 45.8949C15.9819 45.8949 15.9714 45.8843 15.9714 45.8738Z" fill="url(#paint1_linear_2007_18979)"/>
<path fill-rule="evenodd" clip-rule="evenodd" d="M16.7436 48.7077C16.7013 51.6576 14.2801 54.0153 11.3302 53.9731C8.36976 53.9308 6.01198 51.5096 6.05427 48.5597C6.07542 47.1746 6.62521 45.8636 7.59793 44.8803C6.21287 47.3544 7.03756 49.3632 8.03142 50.1139C9.5645 51.2875 13.3602 51.0443 16.7436 48.7077Z" fill="url(#paint2_linear_2007_18979)"/>
<path fill-rule="evenodd" clip-rule="evenodd" d="M15.4853 36.707C14.3434 37.0136 13.1592 36.3264 12.8526 35.1845C12.7997 35.0048 12.7786 34.8145 12.7786 34.6347C12.7786 34.3598 12.8314 34.0955 12.9266 33.8417L11.5415 36.3687C10.7063 37.9969 11.3512 39.9952 12.99 40.8305C13.2438 40.9574 13.5081 41.0525 13.7936 41.116C18.4457 42.2155 27.327 39.4877 34.5695 42.2156C44.6667 46.0113 47.3205 55.2309 53.6749 54.5542C56.8679 54.1419 59.12 51.2237 58.7076 48.0413C58.6125 47.3117 58.3799 46.6033 58.031 45.9584L49.5303 30.469C45.9143 23.8503 36.4198 25.2776 30.5941 27.8574C24.7683 30.4372 18.2237 35.8823 15.4853 36.707Z" fill="url(#paint3_linear_2007_18979)"/>
<path fill-rule="evenodd" clip-rule="evenodd" d="M12.3237 34.9417L11.5413 36.369C10.706 37.9973 11.351 39.9956 12.9792 40.8309C13.233 40.9577 13.5079 41.0635 13.7828 41.1163C18.4349 42.2159 27.3162 39.4881 34.5587 42.2159C41.2831 44.7429 44.6559 49.7439 48.6102 52.8206C49.1812 53.3493 49.9319 53.6348 50.7143 53.6348C52.3954 53.6348 53.7593 52.2708 53.7593 50.5897C53.7593 49.469 52.9452 48.2848 52.4059 47.3121C41.0505 26.8005 28.9973 34.1593 15.3159 38.7162C15.0938 38.7903 14.8507 38.822 14.6181 38.8114C13.1696 38.8008 12.0065 37.6272 12.0065 36.1893C12.0171 35.7558 12.1228 35.3223 12.3237 34.9417Z" fill="url(#paint4_linear_2007_18979)"/>
<defs>
<linearGradient id="paint0_linear_2007_18979" x1="21.0922" y1="23.2051" x2="44.7526" y2="33.1178" gradientUnits="userSpaceOnUse">
<stop stop-color="#5F6DED"/>
<stop offset="1" stop-color="#49B9D9"/>
</linearGradient>
<linearGradient id="paint1_linear_2007_18979" x1="8.25393" y1="49.2538" x2="15.7408" y2="47.8147" gradientUnits="userSpaceOnUse">
<stop stop-color="#5F6EED"/>
<stop offset="1" stop-color="#45C8D4"/>
</linearGradient>
<linearGradient id="paint2_linear_2007_18979" x1="8.15784" y1="49.8217" x2="14.9681" y2="48.1957" gradientUnits="userSpaceOnUse">
<stop stop-color="#578BE5"/>
<stop offset="1" stop-color="#43CED3"/>
</linearGradient>
<linearGradient id="paint3_linear_2007_18979" x1="16.9643" y1="31.7154" x2="56.6151" y2="42.7457" gradientUnits="userSpaceOnUse">
<stop stop-color="#5788E6"/>
<stop offset="1" stop-color="#3FDDCF"/>
</linearGradient>
<linearGradient id="paint4_linear_2007_18979" x1="49.1477" y1="45.2808" x2="15.8923" y2="35.5288" gradientUnits="userSpaceOnUse">
<stop stop-color="#4452CF"/>
<stop offset="1" stop-color="#0BD3B9"/>
</linearGradient>
</defs>
</svg>
