<svg width="64" height="64" viewBox="0 0 64 64" fill="none" xmlns="http://www.w3.org/2000/svg">
<rect x="5.29688" y="5.27032" width="52.7027" height="52.7027" rx="26.3514" fill="#1E1E1E"/>
<path opacity="0.4" d="M46.64 37.125C47.5531 38.6917 47.5571 40.6276 46.6504 42.1981C45.7437 43.7685 44.0652 44.7331 42.2518 44.7257C40.4384 44.7183 38.7678 43.7401 37.874 42.1623L27.2649 23.788C25.8737 21.3673 26.7083 18.2772 29.129 16.8861C31.5497 15.4949 34.6398 16.3295 36.031 18.7502L46.64 37.125Z" fill="#4BDB4B"/>
<path opacity="0.8" d="M25.4246 42.1623C24.0243 44.5638 20.948 45.3844 18.5377 43.9995C16.1273 42.6146 15.287 39.5436 16.6565 37.1245L27.2645 18.7507C28.1544 17.1649 29.8275 16.1792 31.646 16.1693C33.4645 16.1595 35.1482 17.127 36.0553 18.7032C36.9624 20.2793 36.9531 22.2212 36.031 23.7886L25.4246 42.1623Z" fill="#4BDB4B"/>
<path d="M36.001 18.6995C35.9425 18.5999 35.8793 18.5045 35.815 18.4101C35.7839 18.3648 35.7544 18.3184 35.7217 18.2742C35.659 18.1883 35.5915 18.1071 35.5241 18.0265C35.483 17.9769 35.4434 17.9263 35.4002 17.8784C35.3391 17.8109 35.2748 17.7482 35.211 17.6844C35.1472 17.6206 35.0993 17.5716 35.0403 17.5179C34.9812 17.4641 34.9254 17.4209 34.8674 17.3729C34.7947 17.3129 34.7225 17.2523 34.6455 17.1959C34.5928 17.1569 34.5375 17.1216 34.4832 17.0852C34.3978 17.0272 34.3119 16.9698 34.2197 16.9165C34.2007 16.9055 34.1838 16.8923 34.167 16.8812C34.1269 16.858 34.0848 16.8406 34.0437 16.8185C33.9583 16.7727 33.8724 16.7279 33.7854 16.6873C33.7122 16.6525 33.6373 16.6214 33.5619 16.5908C33.4866 16.5603 33.4149 16.5313 33.3406 16.5049C33.2531 16.474 33.1653 16.4456 33.0771 16.4196C33.0117 16.4001 32.9469 16.3816 32.881 16.3668C32.7867 16.3431 32.6913 16.3226 32.5959 16.3041C32.5311 16.292 32.4657 16.2804 32.4009 16.2704C32.3076 16.2567 32.2143 16.2456 32.12 16.2367C32.0476 16.2296 31.9754 16.2244 31.9034 16.2209C31.8187 16.2166 31.7339 16.2145 31.6488 16.2145C31.565 16.2145 31.4818 16.2145 31.398 16.2209C31.3247 16.2246 31.2509 16.2298 31.1772 16.2367C31.0849 16.2456 30.9922 16.2562 30.9005 16.2704C30.8341 16.2804 30.7677 16.292 30.7018 16.3047C30.6069 16.3226 30.5129 16.3431 30.4198 16.3663C30.3529 16.3832 30.2865 16.4022 30.2201 16.4217C30.1322 16.4477 30.0444 16.4758 29.9566 16.506C29.8807 16.5329 29.8053 16.5629 29.7305 16.5935C29.6556 16.624 29.5839 16.6541 29.5123 16.6878C29.4232 16.7294 29.3352 16.7753 29.2488 16.8222C29.2092 16.8438 29.1687 16.8607 29.1297 16.8833C29.1112 16.8939 29.0949 16.9065 29.077 16.9171C28.9842 16.9698 28.8951 17.0309 28.8076 17.0905C28.7549 17.1252 28.7022 17.159 28.6532 17.1959C28.5726 17.2554 28.4951 17.3187 28.4192 17.3824C28.3665 17.4267 28.3138 17.4694 28.2611 17.5163C28.1963 17.5748 28.1357 17.637 28.0745 17.6981C28.0134 17.7593 27.9544 17.8135 27.9017 17.8736C27.849 17.9337 27.8063 17.9864 27.7589 18.0433C27.6988 18.1166 27.6376 18.1898 27.5812 18.2668C27.5412 18.3195 27.5054 18.3769 27.4679 18.4323C27.411 18.5161 27.3546 18.6009 27.3025 18.6895C26.3725 20.2568 26.3588 22.2035 27.2666 23.7837L31.6499 31.3761L36.0326 23.7837C36.9386 22.207 36.9265 20.2648 36.001 18.6995Z" fill="#4BDB4B"/>
</svg>
