<svg width="64" height="64" viewBox="0 0 64 64" fill="none" xmlns="http://www.w3.org/2000/svg">
<g clip-path="url(#clip0_2007_18982)">
<path fill-rule="evenodd" clip-rule="evenodd" d="M35.0534 6.0608L52.3135 14.8885C54.8169 16.2061 56.398 18.7095 56.398 21.6081V25.6926H50.0736V21.6081C50.0736 21.2128 49.8101 20.8176 49.4148 20.554L32.1547 11.7263C31.8912 11.5946 31.4959 11.5946 31.1007 11.7263L13.8405 20.554C13.4453 20.6858 13.1817 21.0811 13.1817 21.6081V25.6926H6.85742V21.6081C6.85742 18.8412 8.4385 16.2061 10.9419 14.8885L28.202 6.0608C30.3101 5.00675 32.8135 5.00675 35.0534 6.0608ZM37.0297 31.3581C37.0297 28.3277 34.5263 25.9561 31.6277 25.9561C28.5973 25.9561 26.2257 28.3277 26.2257 31.3581C26.2257 34.3885 28.729 36.7601 31.6277 36.7601C34.5263 36.7601 37.0297 34.3885 37.0297 31.3581ZM49.2831 42.6892C49.6784 42.5574 49.9419 42.1622 49.9419 41.6351V37.5507H56.2662V41.6351C56.2662 44.402 54.6851 47.0372 52.1817 48.3547L34.9216 57.1824C33.8676 57.7095 32.6817 57.973 31.4959 57.973C30.3101 57.973 29.1243 57.7095 28.0703 57.1824L10.9419 48.3547C8.4385 47.0372 6.85742 44.5338 6.85742 41.6351V37.5507H13.1817V41.6351C13.1817 42.0304 13.4453 42.4257 13.8405 42.6892L28.4655 50.0676V42.6892C23.4588 41.2399 19.9013 36.7601 19.9013 31.3581C19.9013 24.902 25.1716 19.5 31.7594 19.5C38.2155 19.5 43.6176 24.7703 43.6176 31.3581C43.6176 36.7601 39.9284 41.3716 35.0534 42.6892V50.0676L49.2831 42.6892Z" fill="#245AE5" fill-opacity="0.9"/>
</g>
<defs>
<clipPath id="clip0_2007_18982">
<rect width="49.4088" height="52.7027" fill="white" transform="translate(6.85791 5.27051)"/>
</clipPath>
</defs>
</svg>
