<svg width="64" height="64" viewBox="0 0 64 64" fill="none" xmlns="http://www.w3.org/2000/svg">
<rect x="5.7832" y="5.27051" width="52.7027" height="52.7027" rx="26.3514" fill="url(#paint0_linear_2007_18985)"/>
<path d="M28.7077 34.4437L32.2129 23.7766L35.783 34.4437H28.7077ZM43.567 41.1891L40.6676 33.2266H42.3986C42.73 33.2238 43.047 33.0905 43.2809 32.8556C43.5148 32.6207 43.6467 32.3031 43.6481 31.9717C43.6481 31.8154 43.6173 31.6606 43.5575 31.5163C43.4977 31.3719 43.4101 31.2407 43.2996 31.1302C43.1891 31.0197 43.0579 30.932 42.9135 30.8722C42.7691 30.8124 42.6144 30.7816 42.4581 30.7816H39.7534L39.3207 29.5429H42.3986C42.723 29.543 43.0346 29.4164 43.267 29.1901C43.4994 28.9637 43.6343 28.6555 43.6427 28.3312C43.6434 28.1669 43.6116 28.0041 43.5491 27.8522C43.4865 27.7003 43.3945 27.5622 43.2783 27.4461C43.1622 27.3299 43.0241 27.2379 42.8722 27.1753C42.7203 27.1128 42.5575 27.081 42.3932 27.0817H38.3957L36.232 21.1315C35.9087 20.2813 35.3745 19.5274 34.6795 18.9407C33.9929 18.376 33.1228 18.0834 32.2345 18.1185C31.344 18.0902 30.4727 18.3819 29.7787 18.9407C29.0833 19.5282 28.5475 20.2817 28.2208 21.1315L25.9543 27.1358H21.9785C21.661 27.1358 21.3563 27.2615 21.1313 27.4856C20.9062 27.7096 20.7791 28.0137 20.7777 28.3312C20.7777 28.6612 20.9087 28.9776 21.1421 29.211C21.3754 29.4443 21.6918 29.5754 22.0218 29.5754H25.0402L24.575 30.7816H21.8703C21.5518 30.7816 21.2464 30.9082 21.0212 31.1334C20.796 31.3586 20.6695 31.664 20.6695 31.9825C20.6695 32.3087 20.7987 32.6215 21.0288 32.8527C21.2589 33.0838 21.5712 33.2144 21.8974 33.2158H23.6338L20.6857 41.1891C20.5045 41.6386 20.4038 42.1165 20.3882 42.6009C20.4189 43.2804 20.714 43.921 21.2104 44.386C21.7567 44.8591 22.4567 45.1168 23.1794 45.1108C23.7864 45.1441 24.3864 44.9677 24.8788 44.6112C25.3712 44.2547 25.7261 43.7397 25.884 43.1527L27.0254 39.7502H37.5248L38.6662 43.2338C38.8449 43.8012 39.2081 44.2925 39.6982 44.6297C40.1883 44.9669 40.777 45.1305 41.3708 45.0946C41.8254 45.1037 42.274 44.9897 42.669 44.7646C43.0117 44.5103 43.316 44.2079 43.5724 43.8667C43.7958 43.4828 43.9099 43.0451 43.9024 42.6009C43.8307 42.1288 43.7185 41.6636 43.567 41.2107V41.1891Z" fill="#FEFEFE"/>
<defs>
<linearGradient id="paint0_linear_2007_18985" x1="16.7598" y1="14.9704" x2="52.5134" y2="53.694" gradientUnits="userSpaceOnUse">
<stop stop-color="#FC8F55"/>
<stop offset="0.44" stop-color="#FE7A6A"/>
<stop offset="1" stop-color="#FE687C"/>
</linearGradient>
</defs>
</svg>
