<svg width="64" height="64" viewBox="0 0 64 64" fill="none" xmlns="http://www.w3.org/2000/svg">
<path d="M32.3782 57.9729C46.9318 57.9729 58.7296 46.1751 58.7296 31.6216C58.7296 17.068 46.9318 5.2702 32.3782 5.2702C17.8246 5.2702 6.02686 17.0682 6.02686 31.6216C6.02686 46.1749 17.8249 57.9729 32.3782 57.9729Z" fill="#070A0E"/>
<path fill-rule="evenodd" clip-rule="evenodd" d="M21.2484 40.4578C20.8608 40.2209 20.5405 39.8885 20.3181 39.4924C20.0956 39.0963 19.9785 38.6498 19.978 38.1955V33.0475C19.9784 32.853 20.0301 32.6621 20.1278 32.4939C20.2255 32.3257 20.3658 32.1863 20.5345 32.0896C20.7033 31.9929 20.8945 31.9424 21.089 31.9431C21.2835 31.9439 21.4744 31.9959 21.6424 32.0938L33.2612 38.8683C33.5952 39.063 33.8723 39.3419 34.065 39.6771C34.2577 40.0123 34.3593 40.3921 34.3595 40.7787V46.1133C34.36 46.3494 34.2975 46.5813 34.1784 46.7851C34.0593 46.989 33.888 47.1573 33.6821 47.2728C33.4762 47.3883 33.2432 47.4468 33.0072 47.4421C32.7712 47.4375 32.5406 47.3699 32.3394 47.2464L21.2484 40.4578ZM38.5679 30.6827C38.9018 30.8776 39.1788 31.1565 39.3714 31.4918C39.564 31.827 39.6655 32.2068 39.6656 32.5935V43.4173C39.6659 43.5741 39.6243 43.7282 39.5451 43.8636C39.466 43.999 39.3521 44.1108 39.2153 44.1875L36.6713 45.6197C36.6389 45.6375 36.6046 45.6517 36.5691 45.6622V39.6522C36.569 39.2694 36.4697 38.8932 36.281 38.5602C36.0924 38.2271 35.8207 37.9486 35.4924 37.7517L25.2891 31.648V24.8628C25.2896 24.6683 25.3412 24.4773 25.4389 24.3092C25.5366 24.141 25.6769 24.0016 25.8457 23.9049C26.0144 23.8082 26.2057 23.7577 26.4001 23.7584C26.5946 23.7591 26.7855 23.8111 26.9535 23.9091L38.5679 30.6827ZM43.6537 22.6883C43.9889 22.8828 44.2671 23.162 44.4604 23.498C44.6537 23.8339 44.7552 24.2148 44.7549 24.6024V40.4132C44.754 40.5726 44.7103 40.7289 44.6282 40.8655C44.5461 41.0022 44.4288 41.1142 44.2885 41.1898L41.8784 42.4916V31.4851C41.8782 31.1032 41.7793 30.7278 41.5912 30.3954C41.4031 30.0629 41.1323 29.7848 40.8051 29.5878L30.375 23.3323V16.8965C30.3755 16.7015 30.4264 16.51 30.5228 16.3405C30.6705 16.0869 30.9128 15.9023 31.1964 15.8272C31.4801 15.752 31.782 15.7923 32.0359 15.9394L43.6537 22.6883Z" fill="#00D395"/>
</svg>
