<svg width="64" height="64" viewBox="0 0 64 64" fill="none" xmlns="http://www.w3.org/2000/svg">
<ellipse cx="31.6211" cy="31.6216" rx="21.0811" ry="21.0811" fill="white"/>
<path d="M31.6214 5.26996C26.4096 5.26996 21.3148 6.81544 16.9814 9.71096C12.6479 12.6065 9.27038 16.722 7.27591 21.5371C5.28144 26.3522 4.75959 31.6505 5.77637 36.7622C6.79314 41.8739 9.30286 46.5692 12.9882 50.2545C16.6735 53.9398 21.3688 56.4495 26.4805 57.4663C31.5921 58.4831 36.8905 57.9613 41.7056 55.9668C46.5207 53.9723 50.6362 50.5948 53.5317 46.2613C56.4272 41.9279 57.9727 36.8331 57.9727 31.6213C57.9727 24.6325 55.1964 17.9299 50.2546 12.9881C45.3128 8.04625 38.6102 5.26996 31.6214 5.26996V5.26996ZM47.8197 39.3975C46.6952 41.7203 45.0833 43.7734 43.0939 45.4171C41.1044 47.0608 38.7841 48.2565 36.291 48.9227C33.7978 49.589 31.1903 49.7101 28.6462 49.2779C26.102 48.8456 23.6808 47.8702 21.5476 46.418C19.4143 44.9658 17.619 43.071 16.284 40.8625C14.949 38.654 14.1056 36.1837 13.8112 33.6199C13.5169 31.0561 13.7785 28.459 14.5782 26.0054C15.378 23.5518 16.6971 21.2994 18.4457 19.4015C18.5749 19.2465 18.8074 19.4274 18.7299 19.6082C17.4553 21.8981 16.7966 24.4796 16.8181 27.1002C16.8181 34.489 21.83 40.4826 27.9787 40.4826C31.8539 40.4826 35.2899 38.1058 37.2792 34.489C37.2992 34.454 37.3308 34.4271 37.3685 34.413C37.4063 34.3988 37.4478 34.3983 37.4858 34.4114L47.7164 39.1909C47.8197 39.1909 47.8714 39.2942 47.8197 39.3975ZM47.7422 23.9742L37.3308 28.8312C37.2895 28.8504 37.2424 28.8531 37.1991 28.8387C37.1559 28.8243 37.1198 28.7939 37.0983 28.7537C36.6394 27.8629 35.9697 27.0978 35.1476 26.5249C34.3255 25.9521 33.3758 25.5888 32.3812 25.4668C31.3866 25.3448 30.3773 25.4677 29.4411 25.8248C28.5048 26.1819 27.6701 26.7624 27.0094 27.5159C26.3488 28.2693 25.8823 29.1727 25.6505 30.1476C25.4187 31.1224 25.4288 32.1392 25.6797 33.1093C25.9306 34.0794 26.4148 34.9735 27.0901 35.7137C27.7655 36.454 28.6115 37.018 29.5546 37.3566C29.6063 37.3824 29.5804 37.4083 29.5288 37.4083H29.3479C23.871 37.4083 19.4016 32.0863 19.4016 25.4985V25.0851C19.5824 18.859 24.6719 13.8729 30.898 13.6404C31.1305 13.6404 31.363 13.6146 31.6214 13.6146C34.9956 13.6159 38.3013 14.5663 41.1611 16.3571C44.0208 18.1478 46.3193 20.7068 47.7939 23.7417C47.8714 23.8192 47.8197 23.9226 47.7422 23.9742Z" fill="url(#paint0_linear_2007_18990)"/>
<defs>
<linearGradient id="paint0_linear_2007_18990" x1="54.9397" y1="55.1748" x2="4.56215" y2="4.28825" gradientUnits="userSpaceOnUse">
<stop stop-color="#3DEDD6"/>
<stop offset="1" stop-color="#2C55DD"/>
</linearGradient>
</defs>
</svg>
