<svg width="64" height="64" viewBox="0 0 64 64" fill="none" xmlns="http://www.w3.org/2000/svg">
<g clip-path="url(#clip0_2007_18991)">
<path d="M38.5524 17.1541H35.1577V22.1417H38.5524V17.1541Z" fill="#1682FE"/>
<path d="M28.8097 7.9054H25.415V12.8931H28.8097V7.9054Z" fill="#1682FE"/>
<path d="M19.0666 12.6619H15.6719V17.6495H19.0666V12.6619Z" fill="#60D8A4"/>
<path d="M14.2123 31.6216H10.7837V45.858H14.2123V31.6216Z" fill="#F4BB3B"/>
<path d="M14.2123 17.3853H10.7837V31.6216H14.2123V17.3853Z" fill="#60D8A4"/>
<path d="M43.4069 21.9105H40.0122V26.8982H43.4069V21.9105Z" fill="#1682FE"/>
<path d="M43.4069 36.345H40.0122V41.3327H43.4069V36.345Z" fill="#FF5A5A"/>
<path d="M38.5524 41.1015H35.1577V46.0892H38.5524V41.1015Z" fill="#FF5A5A"/>
<path d="M28.8097 50.3502H25.415V55.3378H28.8097V50.3502Z" fill="#FF5A5A"/>
<path d="M19.0666 45.5937H15.6719V50.5814H19.0666V45.5937Z" fill="#F4BB3B"/>
<path d="M52.946 26.8652V17.3853H48.0576V12.6619H38.3148V7.9054H28.5721V12.6619H18.8293V17.4183H13.9409V45.858H18.8293V50.6144H28.5721V55.3709H38.3148V50.6144H48.0576V45.858H52.946V36.345H43.2032V41.1015H38.3148V45.858H28.5721V41.1015H23.7176V22.1417H28.606V17.3853H38.3488V22.1417H43.2372V26.8982H52.946V26.8652Z" fill="#3A3A3A"/>
</g>
<defs>
<clipPath id="clip0_2007_18991">
<rect width="42.1622" height="47.4324" fill="white" transform="translate(10.7837 7.9054)"/>
</clipPath>
</defs>
</svg>
