<svg width="64" height="64" viewBox="0 0 64 64" fill="none" xmlns="http://www.w3.org/2000/svg">
<path d="M32.1077 57.9729C46.6611 57.9729 58.459 46.1749 58.459 31.6215C58.459 17.068 46.6611 5.27014 32.1077 5.27014C17.5542 5.27014 5.75635 17.068 5.75635 31.6215C5.75635 46.1749 17.5542 57.9729 32.1077 57.9729Z" fill="black"/>
<path d="M31.9381 12.5134C31.6976 11.9699 32.5672 11.5845 32.8077 12.1017C38.4601 21.8385 44.1124 31.5803 49.7648 41.3319C49.4634 41.3319 49.1735 41.2331 48.8837 41.187L33.7975 38.1796C33.3034 38.1549 33.1947 37.3561 33.6773 37.2376L39.5965 35.6071C39.667 35.5892 39.7327 35.556 39.7889 35.5097C39.8452 35.4635 39.8904 35.4054 39.9216 35.3396C39.9528 35.2739 39.969 35.202 39.9692 35.1292C39.9693 35.0565 39.9534 34.9846 39.9226 34.9186L31.9381 12.5002V12.5118V12.5134Z" fill="white"/>
<path d="M31.0702 12.5649C31.1245 12.644 31.1723 12.7296 31.2135 12.8186C33.0021 17.8912 34.8368 22.9638 36.6122 28.0365C36.7703 28.4581 36.1774 28.8089 35.8875 28.4943C34.3657 26.9001 32.9164 25.2581 31.4193 23.6638C31.1772 23.4464 30.8264 23.5913 30.67 23.8203L15.1144 42.0949C14.9333 42.2876 14.7768 42.5775 14.4738 42.6137C14.2564 42.6137 14.1114 42.4441 13.9912 42.2761V41.9961C19.6913 32.1901 25.3849 22.3808 31.0702 12.5649Z" fill="white"/>
<path d="M26.3108 29.9672C26.6007 29.8833 26.9861 30.0875 26.8906 30.4383C26.2861 32.5398 25.6471 34.6298 25.018 36.7181C24.9225 36.9849 25.1629 37.2254 25.4166 37.2386C33.5575 38.8691 41.6984 40.5588 49.8377 42.1893C49.9958 42.214 50.1045 42.3343 50.2247 42.4314V42.7691L49.9941 43.0112H15.4409C19.0642 38.6632 22.676 34.2905 26.3108 29.9672Z" fill="white"/>
</svg>
