<svg width="64" height="64" viewBox="0 0 64 64" fill="none" xmlns="http://www.w3.org/2000/svg">
<path d="M32.3514 57.9727C46.9048 57.9727 58.7027 46.1748 58.7027 31.6214C58.7027 17.0679 46.9048 5.27002 32.3514 5.27002C17.7979 5.27002 6 17.0679 6 31.6214C6 46.1748 17.7979 57.9727 32.3514 57.9727Z" fill="#2E3148"/>
<path d="M32.3513 46.9116C40.7959 46.9116 47.6416 40.0659 47.6416 31.6213C47.6416 23.1767 40.7959 16.331 32.3513 16.331C23.9067 16.331 17.061 23.1767 17.061 31.6213C17.061 40.0659 23.9067 46.9116 32.3513 46.9116Z" fill="#1B1E36"/>
<path d="M32.4058 8.63177C29.5614 8.63177 27.2549 18.9489 27.2549 31.6757C27.2549 44.4026 29.5614 54.7197 32.4058 54.7197C35.2503 54.7197 37.5568 44.4026 37.5568 31.6757C37.5568 18.9489 35.2503 8.63177 32.4058 8.63177ZM32.7615 53.4192C32.4362 53.853 32.1109 53.5275 32.1109 53.5275C30.8009 52.0097 30.1459 49.1899 30.1459 49.1899C27.8546 41.8159 28.4 25.9834 28.4 25.9834C29.4768 13.414 31.4357 10.4447 32.1023 9.78554C32.1703 9.71826 32.26 9.67715 32.3554 9.66944C32.4508 9.66173 32.5458 9.68791 32.6238 9.74338C33.591 10.4287 34.4022 13.2949 34.4022 13.2949C36.7977 22.1871 36.5807 30.5371 36.5807 30.5371C36.7977 37.8027 35.3804 45.9358 35.3804 45.9358C34.2894 52.1168 32.7615 53.4192 32.7615 53.4192Z" fill="#6F7390"/>
<path d="M52.3939 20.2079C50.9776 17.7397 40.8817 20.8736 29.8371 27.2068C18.7925 33.54 11.0018 40.6753 12.4169 43.1424C13.8321 45.6095 23.9291 42.4767 34.9737 36.1435C46.0183 29.8103 53.809 22.675 52.3939 20.2079ZM13.7236 42.8039C13.1813 42.7356 13.3038 42.2899 13.3038 42.2899C13.9689 40.3987 16.0855 38.4272 16.0855 38.4272C21.3437 32.7699 35.3492 25.3643 35.3492 25.3643C46.7865 20.043 50.3391 20.2676 51.2403 20.5157C51.3328 20.5415 51.4132 20.5992 51.4672 20.6786C51.5212 20.758 51.5454 20.854 51.5355 20.9495C51.4271 22.1301 49.3394 24.2593 49.3394 24.2593C42.8228 30.7647 35.4717 34.7326 35.4717 34.7326C29.2774 38.5377 21.5174 41.3539 21.5174 41.3539C15.6128 43.4816 13.7238 42.8039 13.7238 42.8039H13.7236Z" fill="#6F7390"/>
<path d="M52.3435 43.2248C53.7707 40.7632 45.9996 33.5952 34.9938 27.2144C23.9881 20.8337 13.8935 17.661 12.4675 20.1268C11.0416 22.5927 18.8114 29.7564 29.8235 36.1372C40.8356 42.518 50.9176 45.6909 52.3435 43.2248ZM13.4132 21.078C13.2024 20.5782 13.6474 20.4578 13.6474 20.4578C15.6177 20.0857 18.3852 20.9336 18.3852 20.9336C25.9143 22.6481 39.3397 31.0577 39.3397 31.0577C49.6763 38.2908 51.2616 41.4768 51.4992 42.3812C51.5234 42.4739 51.514 42.5722 51.4727 42.6587C51.4314 42.7453 51.3609 42.8144 51.2737 42.854C50.1958 43.3475 47.3089 42.6122 47.3089 42.6122C38.4113 40.2265 31.2954 35.8553 31.2954 35.8553C24.9017 32.4069 18.5796 27.1008 18.5796 27.1008C13.7756 23.056 13.4147 21.0835 13.4147 21.0835L13.4132 21.078Z" fill="#6F7390"/>
<path d="M32.3517 34.3328C33.8489 34.3328 35.0627 33.1191 35.0627 31.6218C35.0627 30.1245 33.8489 28.9108 32.3517 28.9108C30.8544 28.9108 29.6406 30.1245 29.6406 31.6218C29.6406 33.1191 30.8544 34.3328 32.3517 34.3328Z" fill="#B7B9C8"/>
<path d="M43.4665 22.8373C44.3349 22.8373 45.0389 22.1091 45.0389 21.2107C45.0389 20.3124 44.3349 19.5841 43.4665 19.5841C42.598 19.5841 41.894 20.3124 41.894 21.2107C41.894 22.1091 42.598 22.8373 43.4665 22.8373Z" fill="#B7B9C8"/>
<path d="M17.6574 28.3683C18.5258 28.3683 19.2298 27.64 19.2298 26.7417C19.2298 25.8433 18.5258 25.1151 17.6574 25.1151C16.789 25.1151 16.085 25.8433 16.085 26.7417C16.085 27.64 16.789 28.3683 17.6574 28.3683Z" fill="#B7B9C8"/>
<path d="M29.1521 48.3215C30.0205 48.3215 30.7245 47.5932 30.7245 46.6949C30.7245 45.7966 30.0205 45.0684 29.1521 45.0684C28.2836 45.0684 27.5796 45.7966 27.5796 46.6949C27.5796 47.5932 28.2836 48.3215 29.1521 48.3215Z" fill="#B7B9C8"/>
</svg>
