<svg width="65" height="64" viewBox="0 0 65 64" fill="none" xmlns="http://www.w3.org/2000/svg">
<path d="M11.4904 26.8911C10.7266 26.8911 10.3872 27.2254 10.3872 27.8942C10.3872 27.8942 10.3872 42.9469 10.3872 45.1203C10.3872 45.8726 10.7266 46.1233 11.4904 46.1233C19.8957 46.2069 30.1658 38.8488 38.656 33.0789V13.1758C30.2528 18.8621 19.726 26.9747 11.4904 26.8911Z" fill="url(#paint0_linear_2007_18994)"/>
<path d="M55.7184 34.6675C56.4821 34.6675 56.8215 34.3331 56.8215 33.6644C56.8215 33.6644 56.8215 18.6115 56.8215 16.4381C56.8215 15.6857 56.4821 15.435 55.7184 15.435C47.2282 15.3514 37.0429 22.7096 28.5527 28.4795V48.2993C36.9581 42.613 47.4849 34.5003 55.7184 34.6675Z" fill="url(#paint1_linear_2007_18994)"/>
<path d="M38.6556 33.079V21.7062C35.1743 23.8796 31.6951 26.2224 28.4683 28.3957V39.7686C32.0345 37.5952 35.431 35.2524 38.6556 33.079Z" fill="#194AAD"/>
<defs>
<linearGradient id="paint0_linear_2007_18994" x1="27.1075" y1="43.6721" x2="22.3009" y2="16.0186" gradientUnits="userSpaceOnUse">
<stop offset="0.1" stop-color="#194AAD"/>
<stop offset="0.5" stop-color="#248FCB"/>
<stop offset="0.8" stop-color="#2BBFDF"/>
</linearGradient>
<linearGradient id="paint1_linear_2007_18994" x1="45.8257" y1="13.6147" x2="39.4694" y2="50.2047" gradientUnits="userSpaceOnUse">
<stop offset="0.1" stop-color="#194AAD"/>
<stop offset="0.5" stop-color="#248FCB"/>
<stop offset="0.8" stop-color="#2BBFDF"/>
</linearGradient>
</defs>
</svg>
