<svg width="64" height="64" viewBox="0 0 64 64" fill="none" xmlns="http://www.w3.org/2000/svg">
<path d="M59.0362 31.6214C59.0362 17.0679 47.2383 5.27002 32.6848 5.27002C18.1314 5.27002 6.3335 17.0679 6.3335 31.6214C6.3335 46.1748 18.1314 57.9727 32.6848 57.9727C47.2383 57.9727 59.0362 46.1748 59.0362 31.6214Z" fill="#010427"/>
<path d="M33.6433 23.1024V16.29C24.9071 16.29 17.8325 23.4427 17.8325 31.8609C17.8325 40.2794 24.9075 47.4325 33.6433 47.4325V40.6201C28.9804 40.6201 24.7497 37.7005 24.7497 31.8612C24.7497 26.022 28.9804 23.1024 33.6433 23.1024Z" fill="white"/>
<path d="M43.2322 23.7381C42.7235 23.7381 42.2198 23.639 41.7499 23.4464C41.28 23.2537 40.853 22.9714 40.4933 22.6155C40.1337 22.2596 39.8484 21.837 39.6537 21.372C39.4591 20.907 39.3589 20.4085 39.3589 19.9052C39.3589 19.4018 39.4591 18.9034 39.6537 18.4384C39.8484 17.9734 40.1337 17.5508 40.4933 17.1949C40.853 16.839 41.28 16.5567 41.7499 16.364C42.2198 16.1714 42.7235 16.0723 43.2322 16.0723C44.2594 16.0723 45.2446 16.4761 45.971 17.1949C46.6973 17.9137 47.1054 18.8886 47.1054 19.9052C47.1054 20.9218 46.6973 21.8967 45.971 22.6155C45.2446 23.3343 44.2594 23.7381 43.2322 23.7381Z" fill="#00DCD7"/>
<path d="M43.2322 47.6504C42.2049 47.6504 41.2197 47.2466 40.4933 46.5278C39.767 45.8089 39.3589 44.8341 39.3589 43.8175C39.3589 42.8009 39.767 41.826 40.4933 41.1072C41.2197 40.3884 42.2049 39.9846 43.2322 39.9846C44.2594 39.9846 45.2446 40.3884 45.971 41.1072C46.6973 41.826 47.1054 42.8009 47.1054 43.8175C47.1054 44.8341 46.6973 45.8089 45.971 46.5278C45.2446 47.2466 44.2594 47.6504 43.2322 47.6504Z" fill="#FF318B"/>
<path d="M33.9614 40.3544V23.3676C38.7042 23.3676 42.6494 27.1424 42.5421 31.8603C42.6494 36.5795 38.7046 40.3544 33.9614 40.3544Z" fill="white"/>
</svg>
