<svg width="64" height="64" viewBox="0 0 64 64" fill="none" xmlns="http://www.w3.org/2000/svg">
<ellipse cx="32.0807" cy="31.6214" rx="18.4459" ry="18.4459" fill="white"/>
<path fill-rule="evenodd" clip-rule="evenodd" d="M32.0808 5.2923C17.5098 5.2923 5.72949 17.1559 5.72949 31.7539C5.72949 46.3519 17.5098 58.2155 32.0808 58.2155C46.6497 58.2155 58.4322 46.3828 58.4322 31.7539C58.4322 17.1559 46.6178 5.2923 32.0808 5.2923ZM34.2005 33.002L43.4373 42.2768C43.6146 42.4516 43.7525 42.6648 43.8409 42.9012C43.9294 43.1375 43.9663 43.3912 43.949 43.6441C43.9317 43.8969 43.8606 44.1427 43.7408 44.3638C43.6211 44.5849 43.4556 44.7758 43.2562 44.923C40.2985 47.2594 36.6791 48.5212 32.9585 48.5129C23.1167 48.5129 15.239 39.935 16.3915 29.8377C17.2393 22.0822 23.5087 15.8461 31.2607 15.0853C35.5761 14.6325 39.8966 15.8937 43.3478 18.6135C43.5366 18.7636 43.6916 18.9544 43.8019 19.1727C43.9123 19.391 43.9755 19.6316 43.987 19.8777C43.9986 20.1238 43.9583 20.3696 43.8688 20.598C43.7794 20.8263 43.6431 21.0318 43.4692 21.2001L34.2005 30.5058C34.0353 30.6657 33.9037 30.8589 33.8137 31.0736C33.7237 31.2883 33.6773 31.5199 33.6773 31.7539C33.6773 31.9879 33.7237 32.2195 33.8137 32.4342C33.9037 32.6489 34.0353 32.8421 34.2005 33.002Z" fill="#69E2DC"/>
</svg>
