<svg width="65" height="64" viewBox="0 0 65 64" fill="none" xmlns="http://www.w3.org/2000/svg">
<path d="M20.0403 8.43219L23.2514 16.38C18.1266 19.5192 14.7068 25.171 14.7068 31.6212C14.7068 41.4853 22.7031 49.4815 32.5672 49.4815C33.8744 49.4823 35.1777 49.3401 36.454 49.0573L39.6652 57.0053C37.3542 57.6491 34.9662 57.9745 32.5672 57.9724C18.0138 57.9724 6.21582 46.1745 6.21582 31.6212C6.21582 21.602 11.8073 12.889 20.0403 8.43219Z" fill="#FE4040"/>
<path d="M32.5668 40.9909C27.3922 40.9909 23.1973 36.796 23.1973 31.6214C23.1973 26.4468 27.3922 22.2519 32.5668 22.2519C36.213 22.2519 39.3731 24.3337 40.9202 27.3759H49.9184C48.0132 19.5614 40.9669 13.761 32.5657 13.761C31.2585 13.7602 29.9552 13.9024 28.6789 14.1852L25.4688 6.23712C27.7798 5.59335 30.1678 5.26798 32.5668 5.27003C47.1202 5.27003 58.9183 17.0681 58.9183 31.6214C58.9183 41.6404 53.3267 50.3538 45.0938 54.8106L41.8826 46.8627C45.8453 44.4355 48.7885 40.506 49.9198 35.8668H40.9202C40.1358 37.4082 38.9404 38.7027 37.4662 39.607C35.9919 40.5113 34.2963 40.9902 32.5668 40.9909Z" fill="#00C46B"/>
</svg>
