<svg width="64" height="64" viewBox="0 0 64 64" fill="none" xmlns="http://www.w3.org/2000/svg">
<path d="M38.9256 9.74969H19.7413L18.1503 18.6387L35.4665 18.6592C43.9962 18.6592 46.511 21.7591 46.4392 26.8913C46.3981 29.519 45.2588 33.9738 44.7661 35.421C43.4522 39.2702 40.7527 43.6531 30.6319 43.6429L13.7982 43.6326L12.2072 52.5319H31.3504C38.1044 52.5319 40.9682 51.7415 44.0168 50.3455C50.7605 47.2149 54.7739 40.5635 56.3854 31.8798C58.777 18.9466 55.8003 9.74969 38.9256 9.74969Z" fill="#008DE4"/>
<path d="M11.4579 26.6757C6.42834 26.6757 5.70983 29.9501 5.23767 31.9311C4.61154 34.5178 4.40625 35.575 4.40625 35.575H24.0524C29.0819 35.575 29.8005 32.3007 30.2726 30.3196C30.8987 27.733 31.104 26.6757 31.104 26.6757H11.4579Z" fill="#008DE4"/>
</svg>
